<?xml version="1.0" encoding="utf-8"?>
<!-- Generator: Adobe Illustrator 24.0.0, SVG Export Plug-In . SVG Version: 6.00 Build 0)  -->
<svg version="1.1" id="Layer_1" xmlns="http://www.w3.org/2000/svg" xmlns:xlink="http://www.w3.org/1999/xlink" x="0px" y="0px"
	 viewBox="0 0 1366 768" style="enable-background:new 0 0 1366 768;" xml:space="preserve">
<style type="text/css">
	.st0{opacity:0.83;}
	.st1{fill-rule:evenodd;clip-rule:evenodd;fill:#B5E3F4;}
	.st2{fill-rule:evenodd;clip-rule:evenodd;fill:#84788F;}
	.st3{fill-rule:evenodd;clip-rule:evenodd;fill:#7E6C82;}
	.st4{fill-rule:evenodd;clip-rule:evenodd;fill:#725166;}
	.st5{fill-rule:evenodd;clip-rule:evenodd;fill:#844E8F;}
	.st6{fill-rule:evenodd;clip-rule:evenodd;fill:#7F4784;}
	.st7{fill-rule:evenodd;clip-rule:evenodd;fill:#6C2D59;}
	.st8{fill-rule:evenodd;clip-rule:evenodd;fill:#738067;}
	.st9{fill-rule:evenodd;clip-rule:evenodd;fill:#6C6656;}
	.st10{fill-rule:evenodd;clip-rule:evenodd;fill:#68594D;}
	.st11{fill-rule:evenodd;clip-rule:evenodd;fill:#EFAF9E;}
	.st12{fill-rule:evenodd;clip-rule:evenodd;fill:#EEAD9A;}
	.st13{fill-rule:evenodd;clip-rule:evenodd;fill:#1E1925;}
	.st14{fill-rule:evenodd;clip-rule:evenodd;fill:#7B4652;}
	.st15{fill-rule:evenodd;clip-rule:evenodd;fill:#EDA08C;}
	.st16{fill-rule:evenodd;clip-rule:evenodd;fill:#E86870;}
	.st17{fill-rule:evenodd;clip-rule:evenodd;fill:#3D211A;}
	.st18{fill-rule:evenodd;clip-rule:evenodd;fill:#FAFFFF;}
	.st19{fill-rule:evenodd;clip-rule:evenodd;fill:#000313;}
	.st20{fill-rule:evenodd;clip-rule:evenodd;fill:#C7CFDF;}
	.st21{fill-rule:evenodd;clip-rule:evenodd;fill:#EA8A0F;}
	.st22{fill-rule:evenodd;clip-rule:evenodd;fill:#C06029;}
	.st23{fill-rule:evenodd;clip-rule:evenodd;fill:#E2E9FA;}
	.st24{fill-rule:evenodd;clip-rule:evenodd;fill:#EFA92E;}
	.st25{fill-rule:evenodd;clip-rule:evenodd;fill:#2C2C39;}
	.st26{fill-rule:evenodd;clip-rule:evenodd;fill:#3F6C8F;}
	.st27{fill-rule:evenodd;clip-rule:evenodd;fill:#5DBFFC;}
	.st28{fill-rule:evenodd;clip-rule:evenodd;fill:#E00022;}
	.st29{fill-rule:evenodd;clip-rule:evenodd;fill:#C4AA2B;}
	.st30{fill-rule:evenodd;clip-rule:evenodd;fill:#E6EBFE;}
	.st31{fill-rule:evenodd;clip-rule:evenodd;fill:#C19C7C;}
	.st32{fill-rule:evenodd;clip-rule:evenodd;fill:#D7DCEB;}
	.st33{fill-rule:evenodd;clip-rule:evenodd;fill:#303879;}
	.st34{fill-rule:evenodd;clip-rule:evenodd;fill:#ADB2C1;}
	.st35{fill-rule:evenodd;clip-rule:evenodd;fill:#491925;}
	.st36{fill-rule:evenodd;clip-rule:evenodd;fill:#48222F;}
	.st37{fill-rule:evenodd;clip-rule:evenodd;fill:#54598F;}
	.st38{fill-rule:evenodd;clip-rule:evenodd;fill:#48426D;}
	.st39{fill-rule:evenodd;clip-rule:evenodd;fill:#6D79B7;}
	.st40{fill-rule:evenodd;clip-rule:evenodd;fill:#FAF2FF;}
	.st41{fill-rule:evenodd;clip-rule:evenodd;fill:#BF99A8;}
	.st42{fill-rule:evenodd;clip-rule:evenodd;fill:#393A48;}
	.st43{fill-rule:evenodd;clip-rule:evenodd;fill:#292E3D;}
	.st44{fill-rule:evenodd;clip-rule:evenodd;fill:#151A29;}
	.st45{fill-rule:evenodd;clip-rule:evenodd;fill:#DE1922;}
	.st46{fill-rule:evenodd;clip-rule:evenodd;fill:#E4574E;}
	.st47{fill-rule:evenodd;clip-rule:evenodd;fill:#2E3342;}
	.st48{fill-rule:evenodd;clip-rule:evenodd;fill:#172751;}
	.st49{fill-rule:evenodd;clip-rule:evenodd;fill:#314B8F;}
	.st50{fill-rule:evenodd;clip-rule:evenodd;fill:#F5F8FF;}
	.st51{fill-rule:evenodd;clip-rule:evenodd;fill:#E9D79F;}
	.st52{fill-rule:evenodd;clip-rule:evenodd;fill:#ECD28A;}
	.st53{fill-rule:evenodd;clip-rule:evenodd;fill:#64442F;}
	.st54{fill-rule:evenodd;clip-rule:evenodd;fill:#925A33;}
	.st55{fill-rule:evenodd;clip-rule:evenodd;fill:#E9EEFE;}
	.st56{fill-rule:evenodd;clip-rule:evenodd;fill:#172D68;}
	.st57{fill-rule:evenodd;clip-rule:evenodd;fill:#00A0F7;}
	.st58{fill-rule:evenodd;clip-rule:evenodd;fill:#EC910F;}
	.st59{fill-rule:evenodd;clip-rule:evenodd;fill:#25B2F7;}
	.st60{fill-rule:evenodd;clip-rule:evenodd;fill:#203C99;}
	.st61{fill-rule:evenodd;clip-rule:evenodd;fill:#EFAF9B;}
	.st62{fill-rule:evenodd;clip-rule:evenodd;fill:#15131A;}
	.st63{fill-rule:evenodd;clip-rule:evenodd;fill:#F7D00F;}
	.st64{fill-rule:evenodd;clip-rule:evenodd;fill:#131113;}
	.st65{fill-rule:evenodd;clip-rule:evenodd;fill:#7B6E2F;}
	.st66{fill-rule:evenodd;clip-rule:evenodd;fill:#E8C830;}
	.st67{fill-rule:evenodd;clip-rule:evenodd;fill:#292635;}
	.st68{fill-rule:evenodd;clip-rule:evenodd;fill:#30303C;}
	.st69{fill-rule:evenodd;clip-rule:evenodd;fill:#30303D;}
	.st70{fill-rule:evenodd;clip-rule:evenodd;fill:#FADA4A;}
	.st71{fill-rule:evenodd;clip-rule:evenodd;fill:#9F68FA;}
	.st72{fill-rule:evenodd;clip-rule:evenodd;fill:#002D5A;}
	.st73{fill-rule:evenodd;clip-rule:evenodd;fill:#44437F;}
	.st74{fill-rule:evenodd;clip-rule:evenodd;fill:#F5D9D6;}
	.st75{fill-rule:evenodd;clip-rule:evenodd;fill:#4E4D8F;}
	.st76{fill-rule:evenodd;clip-rule:evenodd;fill:#EC5A33;}
	.st77{fill-rule:evenodd;clip-rule:evenodd;fill:#AD71FF;}
	.st78{fill-rule:evenodd;clip-rule:evenodd;fill:#AE83FF;}
	.st79{fill-rule:evenodd;clip-rule:evenodd;fill:#829CBF;}
	.st80{fill-rule:evenodd;clip-rule:evenodd;fill:#FAFDFF;}
	.st81{fill-rule:evenodd;clip-rule:evenodd;fill:#F1F9F9;}
	.st82{fill-rule:evenodd;clip-rule:evenodd;fill:#999EAE;}
</style>
<g>
	<g class="st0">
		<path class="st1" d="M194.6,429.89c-48.23,13.99-81.99,119.51-29.74,170.41c43.28,42.21-157.29,167.81,111.46,162.34
			c54.42-1.07,695.01,7.96,712.79-10.55c103.14,2.76,303.06-45.14,211.23-182.03c-38.77-57.78,17.51-112.01-8.05-164.14
			c-26.48-54.23-89.11-19.07-119.45-67.94c-36.65-59.13,41.16-118.27-22.18-173c-32.24-27.87-132.99,17.72-155.99-29.85
			c-27.95-57.78-91.34-201.05-202.64-99.99c-87.1,79.17-204.1-43.9-273.64,52.87c-37.46,52.14-4.62,74.48-35.12,113.59
			c-40.02,51.29-98.14,17.44-123.64,47.4C216.13,300.11,316.93,394.46,194.6,429.89L194.6,429.89z"/>
	</g>
	<g>
		<g>
			<path class="st2" d="M375.52,665.73c-14.83-98.79-186.61-159.18-287.73-135.89C126.73,641.45,275.6,720.68,375.52,665.73z"/>
			<path class="st3" d="M87.79,529.83c38.94,111.62,187.82,190.85,287.73,135.89C321.21,608.66,165.97,543.27,87.79,529.83z"/>
			<path class="st4" d="M87.79,529.83c87.69,23.37,219.19,78.23,285.29,137.2c0.81-0.43,1.63-0.86,2.43-1.31
				C321.21,608.66,165.97,543.27,87.79,529.83z"/>
			<polygon class="st4" points="318.48,624.26 249.58,643.62 316.58,622.93 			"/>
			<path class="st4" d="M302.06,616.09c-0.19-1.14-25.05-48.59-25.05-48.59l22.87,47.26L302.06,616.09z"/>
			<path class="st4" d="M267.05,596.74c0,0-64.91,20.88-63.77,20.12c1.14-0.76,65.62-19.07,65.62-19.07L267.05,596.74z"/>
			<path class="st4" d="M238.15,581.79c0.56-1.23-29.7-38.62-29.7-38.62l27.62,39.19L238.15,581.79z"/>
			<polygon class="st4" points="199.34,566.51 149.89,576.19 201.14,567.56 			"/>
			<path class="st4" d="M167.64,553.8c-0.38-0.57-22.78-23.25-22.78-23.25l20.83,23.16L167.64,553.8z"/>
			<path class="st4" d="M139.03,543.74c-1.04-0.19-33.12,1.71-31.79,1.71c1.33,0,33.07-0.47,33.07-0.47L139.03,543.74z"/>
		</g>
		<g>
			<path class="st5" d="M387.58,655.31c43.52-66.98-27.26-194.22-100.12-233.92C251.56,508.85,298.64,635.21,387.58,655.31z"/>
			<path class="st6" d="M287.46,421.4c-35.89,87.45,11.18,213.82,100.12,233.92C385.34,592.37,327.12,470.9,287.46,421.4z"/>
			<path class="st7" d="M287.46,421.4c40.08,60.49,89.69,163.06,97.97,233.41c0.71,0.18,1.43,0.35,2.15,0.51
				C385.34,592.37,327.12,470.9,287.46,421.4z"/>
			<polygon class="st7" points="375.44,600.25 323.94,575.3 375.01,598.45 			"/>
			<path class="st7" d="M369.94,586.66c0.49-0.78,10.77-42.36,10.77-42.36l-11.38,40.41L369.94,586.66z"/>
			<path class="st7" d="M359.25,556.5c0,0-49.92-21.93-48.83-21.78c1.08,0.15,49.39,23.39,49.39,23.39L359.25,556.5z"/>
			<path class="st7" d="M349.89,532.23c0.99-0.44,2.71-38.87,2.71-38.87l-4.26,38.1L349.89,532.23z"/>
			<polygon class="st7" points="334.76,502.5 300.04,482.08 335.29,504.08 			"/>
			<path class="st7" d="M322.54,478.08c0.07-0.54-1.3-25.99-1.3-25.99l0.19,24.9L322.54,478.08z"/>
			<path class="st7" d="M310.75,456.89c-0.52-0.67-20.73-16.54-19.93-15.84c0.8,0.7,20.04,17.26,20.04,17.26L310.75,456.89z"/>
		</g>
		<g>
			<path class="st8" d="M379.5,678.53c-52.35-60.33-194.19-27.47-252.47,31.59C201.15,768.78,335.61,758.45,379.5,678.53z"/>
			<path class="st9" d="M127.02,710.12c74.12,58.66,208.58,48.33,252.47-31.59C318.38,663.29,185.56,685.68,127.02,710.12z"/>
			<path class="st10" d="M127.02,710.12c69.21-21.81,181.49-41.13,251.39-29.66c0.37-0.64,0.73-1.28,1.08-1.93
				C318.38,663.29,185.56,685.68,127.02,710.12z"/>
			<polygon class="st10" points="323.22,674.98 285.01,717.58 321.37,674.9 			"/>
			<path class="st10" d="M308.64,676.51c-0.62-0.69-37.74-22.06-37.74-22.06l35.69,22.1L308.64,676.51z"/>
			<path class="st10" d="M276.7,678.45c0,0-34.87,41.91-34.43,40.91c0.44-1,36.12-41,36.12-41L276.7,678.45z"/>
			<path class="st10" d="M250.79,680.75c-0.15-1.07-36.61-13.34-36.61-13.34l35.44,14.62L250.79,680.75z"/>
			<polygon class="st10" points="218.04,687.07 188.82,714.79 219.71,687 			"/>
			<path class="st10" d="M191.2,692.07c-0.5-0.22-25.34-5.93-25.34-5.93l23.99,6.7L191.2,692.07z"/>
			<path class="st10" d="M167.57,697.54c-0.79,0.32-21.63,15.35-20.73,14.78c0.9-0.57,22.12-14.49,22.12-14.49L167.57,697.54z"/>
		</g>
	</g>
	<g>
		<g>
			<path class="st2" d="M959.59,686.25c14.83-98.79,186.61-159.18,287.73-135.89C1208.38,661.97,1059.5,741.2,959.59,686.25z"/>
			<path class="st3" d="M1247.32,550.35c-38.94,111.62-187.82,190.85-287.73,135.89C1013.89,629.18,1169.13,563.79,1247.32,550.35z"
				/>
			<path class="st4" d="M1247.32,550.35c-87.69,23.37-219.19,78.23-285.29,137.2c-0.81-0.43-1.63-0.86-2.43-1.31
				C1013.89,629.18,1169.13,563.79,1247.32,550.35z"/>
			<polygon class="st4" points="1016.63,644.78 1085.52,664.13 1018.52,643.45 			"/>
			<path class="st4" d="M1033.04,636.61c0.19-1.14,25.05-48.59,25.05-48.59l-22.87,47.26L1033.04,636.61z"/>
			<path class="st4" d="M1068.06,617.25c0,0,64.91,20.88,63.77,20.12c-1.14-0.76-65.62-19.07-65.62-19.07L1068.06,617.25z"/>
			<path class="st4" d="M1096.96,602.31c-0.56-1.23,29.7-38.62,29.7-38.62l-27.62,39.19L1096.96,602.31z"/>
			<polygon class="st4" points="1135.77,587.03 1185.21,596.71 1133.97,588.07 			"/>
			<path class="st4" d="M1167.47,574.31c0.38-0.57,22.78-23.25,22.78-23.25l-20.83,23.16L1167.47,574.31z"/>
			<path class="st4" d="M1196.08,564.26c1.04-0.19,33.12,1.71,31.79,1.71c-1.33,0-33.07-0.47-33.07-0.47L1196.08,564.26z"/>
		</g>
		<g>
			<path class="st5" d="M947.53,675.83c-43.52-66.98,27.26-194.22,100.12-233.92C1083.54,529.36,1036.46,655.73,947.53,675.83z"/>
			<path class="st6" d="M1047.65,441.92c35.89,87.45-11.19,213.82-100.12,233.92C949.76,612.88,1007.99,491.42,1047.65,441.92z"/>
			<path class="st7" d="M1047.65,441.92c-40.08,60.49-89.69,163.06-97.97,233.41c-0.71,0.18-1.43,0.35-2.15,0.51
				C949.76,612.88,1007.99,491.42,1047.65,441.92z"/>
			<polygon class="st7" points="959.67,620.77 1011.16,595.81 960.1,618.96 			"/>
			<path class="st7" d="M965.16,607.18c-0.49-0.78-10.77-42.36-10.77-42.36l11.38,40.41L965.16,607.18z"/>
			<path class="st7" d="M975.85,577.02c0,0,49.92-21.93,48.83-21.78c-1.08,0.15-49.39,23.39-49.39,23.39L975.85,577.02z"/>
			<path class="st7" d="M985.22,552.75c-0.99-0.44-2.71-38.87-2.71-38.87l4.26,38.1L985.22,552.75z"/>
			<polygon class="st7" points="1000.35,523.02 1035.07,502.59 999.82,524.6 			"/>
			<path class="st7" d="M1012.57,498.6c-0.07-0.54,1.3-25.99,1.3-25.99l-0.19,24.9L1012.57,498.6z"/>
			<path class="st7" d="M1024.36,477.41c0.52-0.67,20.73-16.54,19.93-15.84c-0.79,0.7-20.04,17.26-20.04,17.26L1024.36,477.41z"/>
		</g>
		<g>
			<path class="st8" d="M955.61,699.05c52.35-60.33,194.19-27.47,252.47,31.59C1133.96,789.3,999.5,778.97,955.61,699.05z"/>
			<path class="st9" d="M1208.08,730.64c-74.13,58.66-208.58,48.33-252.47-31.59C1016.72,683.81,1149.54,706.2,1208.08,730.64z"/>
			<path class="st10" d="M1208.08,730.64c-69.21-21.81-181.49-41.13-251.39-29.66c-0.37-0.64-0.73-1.28-1.08-1.93
				C1016.72,683.81,1149.54,706.2,1208.08,730.64z"/>
			<polygon class="st10" points="1011.89,695.5 1050.1,738.1 1013.74,695.42 			"/>
			<path class="st10" d="M1026.47,697.03c0.62-0.69,37.74-22.06,37.74-22.06l-35.69,22.1L1026.47,697.03z"/>
			<path class="st10" d="M1058.4,698.97c0,0,34.87,41.91,34.43,40.91c-0.44-1-36.12-41-36.12-41L1058.4,698.97z"/>
			<path class="st10" d="M1084.31,701.27c0.15-1.07,36.61-13.34,36.61-13.34l-35.44,14.62L1084.31,701.27z"/>
			<polygon class="st10" points="1117.06,707.59 1146.29,735.31 1115.4,707.52 			"/>
			<path class="st10" d="M1143.91,712.59c0.5-0.22,25.34-5.93,25.34-5.93l-23.99,6.7L1143.91,712.59z"/>
			<path class="st10" d="M1167.54,718.06c0.79,0.32,21.63,15.35,20.73,14.78c-0.9-0.57-22.12-14.49-22.12-14.49L1167.54,718.06z"/>
		</g>
	</g>
	<g>
		<path class="st11" d="M826.52,444.74c0,0,5.22,6.09,5.38,7.96c0.16,1.86-1.12,6.66-1.86,5.63c-0.75-1.03-0.88-4.19-0.88-4.19
			l-1.45-1.76c0,0,1.01,9.38,0.52,11.1c-0.49,1.72-1.44,1.68-1.44,1.68s-0.13,1.5-1.11,1.75c-0.8,0.2-1.36,0.07-1.79-0.84
			c0,0-0.27,0.36-1.01-0.04c-0.74-0.4-1.2-1.39-1.2-1.39s-0.55,0.24-1.19-0.52c-0.64-0.76-0.74-1.29-0.78-1.45
			c-0.04-0.17-1.02-7.12-1.13-7.43c-1.25-3.39-0.37-8.58,1.63-10.91C824.04,439.84,822.51,443.03,826.52,444.74z"/>
		<path class="st12" d="M958.01,337.93c-0.42-0.17-2.44,1.23-4.57-1.05c-2.18-1.22-2.86-3.76-2.05-5.18
			c0.76-1.31,2.23-2.45,2.76-3.46c1.22-2.18,2.81-3.7,6.17-2.41c3.36,1.28,4.99,1.82,5.05,5.45
			C965.43,334.89,960.98,338.01,958.01,337.93z"/>
		<path class="st13" d="M918.71,604.93c1.4,3.84,2.47,9.08,2.47,9.08s21.37,9.41,18.35,11.62c-4.7,3.43-22.09-1-28.26-2.33
			l0.03-9.79L918.71,604.93z"/>
		<path class="st13" d="M852.87,602.53c-1.4,3.84-2.47,9.08-2.47,9.08s-21.37,9.41-18.35,11.62c4.7,3.43,26.81-0.76,26.81-2.67
			l-0.03-9.79L852.87,602.53z"/>
		<path class="st14" d="M903.76,435.39c8.84,48.64,12.76,120.48,17.43,178.62c0,0-6.97,0.17-9.88-0.5
			c-11.66-48.46-22.17-98.43-33.83-146.89c-6.23,47.73-12.23,98.25-18.47,145.99c-1.67,0.52-6.79-0.74-8.61-1
			c-1.82-0.26-2.61-171.19-2.28-173.21C848.46,436.39,903.76,435.39,903.76,435.39z"/>
		<path class="st15" d="M877.31,307.23c-0.41,3.82-0.65,16.16,6.89,18.84c3.09,1.1,5.98,3.47,5.98,3.47
			c-0.22,11.63-27.29,14.71-38.61,4.18l4.49-5.33c9.47-1.92,5.4-17.87,4.92-25.51L877.31,307.23z"/>
		<path class="st16" d="M900.54,348.02c-1.22,42.82,6.27,74.17,7.99,97.74c0.74,12.19-63.88,20.68-63.84,10.55
			c1.21-34.71,1.67-71.64-2.18-103.57l0.13-20.24c0.58-0.13,1.15-0.26,1.73-0.4l11.69-3.71c0,0,6.98,6.98,18.14,5.58
			c11.16-1.39,10-7.91,10-7.91c5.09,0.82,10.08,1.87,15.18,2.69L900.54,348.02z"/>
		<path class="st17" d="M850.48,288.82c-0.43,1.79,1.82,9.38,3.76,13.73c1.94,4.34,7.47,6.75,7.43,6.12
			c-0.04-0.63-1.38-16.06-1.38-16.06L850.48,288.82z"/>
		<path class="st11" d="M888.81,309.43c-1.91,10.59-6.53,13.74-14.07,10.06c-6.46-3.15-11.14-8.77-14.21-14.79
			c-2.05,0.57-4.53-0.73-5.98-3.29c-1.71-3.03-1.33-6.69,0.84-8.17c0.48-0.33,1.01-0.52,1.57-0.59c-0.24-3.23,0.04-6.28,0.2-9.52
			c0.3-6.03,16.49-11.87,23.58-8.18C889.57,279.57,890.17,301.88,888.81,309.43z"/>
		<path class="st17" d="M862.8,285.84c-0.7,0.71,0.9,11.82-0.33,11.87c-1.23,0.05-5.52-5.05-5.52-5.05s-0.22-0.3-1.57,0.59
			c-1.34,0.9-1.68,2.45-1.68,2.45s-5.4-10.34-4.77-12.65c0.63-2.32,5.16-5.25,5.16-5.25s0.37-2.46,2.92-5.3
			c2.55-2.84,10.01-3.44,19.97-4.88c9.86-1.42,16.9,4.75,7.95,11.68C876.71,285.69,862.8,285.84,862.8,285.84z"/>
		<path class="st16" d="M842.64,332.5c-14.34,6.18-23.35,65.24-24.43,114.97l9.25-2.17c0.91-24.71,5.7-58.25,18.09-92.28
			L842.64,332.5z"/>
		<path class="st16" d="M899.39,328.76c15.29,15.97,29,44.85,29,44.85c1.09-1.61,19.67-32.8,23-41.91l6.62,6.23
			c-3.32,8.11-21.34,51.92-27.72,52.64c-12.56,1.42-29.01-33.75-33.81-41.29L899.39,328.76z"/>
		<path class="st18" d="M991.3,290.97c0.64-0.14,7.95-0.37,7.95-0.37l4.05,12.26l-5.66,4.93L991.3,290.97z"/>
		<path class="st19" d="M961.91,312.47c-0.33,1.54-0.15,6.38,1.5,11.04c1.65,4.65,4.8,7.69,4.83,9.64c0.04,2.03-5.29,5.55-7.63,3.14
			c-1.89-1.95-7.56-21.98-7.05-22.38C954.08,313.49,961.91,312.47,961.91,312.47z"/>
		<path class="st20" d="M991.44,276.46c-0.19-0.39-0.63,0.11-1.94,1.01c-1.31,0.9-0.26,0.18-1.34,2.39
			c-2.28,4.69-32.05,22.57-37.74,25.22c-3.55,1.66-4.31,2.35-5.5,3.3l5.58,15.29c1.53-0.02,2.26-0.27,6.07-1.21
			c6.09-1.51,40.48-6.33,45.2-4.12c1.27,0.6,4.69,0.6,4.69,0.59C1003.07,304.43,998.08,290.27,991.44,276.46z"/>
		<path class="st21" d="M991.44,276.46c-0.19-0.39-0.63,0.11-1.94,1.01c-1.31,0.9-0.26,0.18-1.34,2.39
			c5.44,11.92,10,24.71,13.61,38.47c2.23,1.04,0.96,1.15,2.55,1.02c1.58-0.13,2.24-0.01,2.14-0.43
			C1003.07,304.43,998.08,290.27,991.44,276.46z"/>
		<path class="st21" d="M951.07,304.77c-0.24,0.12-0.46,0.23-0.65,0.32c-3.55,1.66-5.69,1.84-6.88,2.78l2.96,8.38l2.96,8.38
			c1.53-0.02,3.3-1.22,7.1-2.16c0.2-0.05,0.44-0.1,0.71-0.16L951.07,304.77z"/>
		<path class="st22" d="M953.64,314.86c-0.11-0.58-0.14-0.92-0.07-0.97c0.29-0.23,2.93-0.65,5.17-0.98L953.64,314.86z"/>
		<path class="st23" d="M991.44,276.46c-0.19-0.39-2.88,2.59-3.28,3.4c-2.28,4.69-32.05,22.57-37.74,25.22
			c-3.55,1.66-4.31,2.35-5.5,3.3l2.83,8.73l52.28-20.05C997.56,290.12,994.7,283.25,991.44,276.46z"/>
		<path class="st24" d="M991.44,276.46c-0.19-0.39-0.63,0.11-1.94,1.01c-1.31,0.9-0.26,0.18-1.34,2.39
			c2.76,6.05,5.3,12.33,7.6,18.84l4.28-1.64C997.56,290.12,994.7,283.25,991.44,276.46z"/>
		<path class="st24" d="M951.07,304.77c-0.24,0.12-0.46,0.23-0.65,0.32c-3.55,1.66-5.69,1.84-6.88,2.78l2.96,8.38l0.42,1.19
			l7.6-2.92L951.07,304.77z"/>
		<polygon class="st25" points="1010.68,287.2 1028.36,276.94 1026.58,274.74 		"/>
		<polygon class="st25" points="1003.82,281.27 1016.75,262.96 1015.35,261.81 		"/>
		<polygon class="st25" points="1008.75,298.95 1036.4,297.35 1036.18,300.18 		"/>
		<polygon class="st25" points="1008.83,306.61 1031.13,315.42 1030.7,317.18 		"/>
		<path class="st15" d="M960.32,324.89c-0.84,3.19,0.93,6.94,3.56,8.39c0.84,0.46,2.19,0.84,4.77-1.19c2.35-1.85-1.78-9.11-3.6-9.45
			C963.23,322.3,960.36,323.81,960.32,324.89z"/>
		<path class="st11" d="M954.6,332.88l-1.8-1.92c0,0,1.23-5.27,2.34-6.48c1.11-1.2,5.4-5.52,5.89-5.06
			c0.49,0.46,0.71,1.68-0.41,3.91c-1.12,2.23-3.3,3.1-3.3,3.1s0.71,3.75-0.1,6.19C956.42,335.05,954.6,332.88,954.6,332.88z"/>
		<path class="st17" d="M860.19,280.86l2.48,5.36c3.61,0.38,15.46,1.59,18.05,0.33l-2.32-1.35c0,0,4.45,0.23,8.86-1.44
			c4.41-1.67,5.6-3.84,5.22-3.84c-0.38,0-3.57-0.23-3.57-0.23s2.07-0.29,4.32-4.75c2.25-4.45,2.69-6.56,2.25-6.15
			c-0.44,0.41-3.25,1.47-3.13,1.06c0.13-0.41,0.38-3.75,0.38-3.75s-4.4,0.55-10.08,1c-5.67,0.45-23.85,3.46-23.91,4.98
			C858.69,273.59,860.19,280.86,860.19,280.86z"/>
	</g>
	<g>
		<path class="st13" d="M632.36,398.12c-1.38,3.8-2.44,8.99-2.44,8.99s-21.17,9.32-18.18,11.51c4.65,3.4,21.89-0.99,28-2.3
			l-0.03-9.7L632.36,398.12z"/>
		<path class="st13" d="M697.59,395.74c1.38,3.8,2.44,8.99,2.44,8.99s21.17,9.32,18.18,11.51c-4.65,3.4-26.56-0.75-26.56-2.65
			l0.03-9.7L697.59,395.74z"/>
		<path class="st15" d="M540.51,88c0,0-1.15,4.38,1.44,7.32c2.59,2.94,7.51,3.74,7.51,3.74l4.14-4.69c0,0-3.81-8.21-4.22-8.79
			C548.97,85.01,540.51,88,540.51,88z"/>
		<path class="st26" d="M647.18,230.15c-8.76,48.19-12.64,119.36-17.26,176.97c0,0,6.91,0.17,9.78-0.49
			c11.56-48.01,21.96-97.52,33.52-145.53c6.18,47.29,12.12,97.34,18.3,144.63c1.65,0.51,6.72-0.73,8.53-0.99
			c1.81-0.26,2.59-169.61,2.26-171.6C701.96,231.15,647.18,230.15,647.18,230.15z"/>
		<path class="st15" d="M673.37,103.18c0.4,3.79,0.64,16.01-6.82,18.67c-3.06,1.09-5.92,3.44-5.92,3.44
			c0.21,11.52,27.03,14.57,38.25,4.14l-4.45-5.28c-9.39-1.9-5.35-17.71-4.88-25.27L673.37,103.18z"/>
		<path class="st11" d="M806.55,97.43c0,0,1.04-9.56,2.54-11.23c1.5-1.67,6.74-4.49,6.45-3c-0.29,1.5-2.94,4.21-2.94,4.21
			l-0.35,2.71c0,0,7.37-8.58,9.27-9.56c1.9-0.98,2.65-0.11,2.65-0.11s2.25-1.73,3.11-1.04c0.86,0.69,0.45,1.93,0.27,2.32
			c-0.17,0.39-0.22,0.5-0.22,0.5s0.53-0.06,0.79,0.92c0.26,0.98-0.23,2.19-0.23,2.19s0.66,0.29,0.52,1.47
			c-0.14,1.18-0.52,1.7-0.63,1.87c-0.12,0.17-5.39,6.74-5.56,7.09c-0.17,0.35-0.49,1.96-2.74,4.15c-2.25,2.19-8.14,3.39-8.14,3.39
			C805.1,100.02,808.34,102.34,806.55,97.43z"/>
		<path class="st27" d="M649.28,124.85c-33.3,5.47-70.39-9.37-94.73-31.57l-5.1,5.78c0,0,14.55,23.02,43.58,34.31
			c18.55,9.43,43.4,10.5,57.32,10.22c1.21,42.42-6.21,73.48-7.91,96.83c-0.74,12.08,63.29,20.49,63.24,10.45
			c-1.2-34.39-7.35-73.06-3.54-104.69c14.29,0.05,48.65,0.1,65.91-8.68c29.03-11.29,43.58-34.31,43.58-34.31l-5.1-5.78
			c-25.76,23.51-65.82,38.76-100.54,30.4l-11.58-3.68c0,0-6.91,6.91-17.97,5.53c-11.06-1.38-9.91-7.83-9.91-7.83
			C660.76,122.78,655.12,124.01,649.28,124.85z"/>
		<path class="st13" d="M699.96,84.94c0.43,1.77-1.8,9.29-3.72,13.6c-1.92,4.3-7.4,6.69-7.36,6.06c0.04-0.63,1.37-15.91,1.37-15.91
			L699.96,84.94z"/>
		<path class="st11" d="M661.98,105.37c1.89,10.49,6.47,13.61,13.94,9.97c6.4-3.12,11.04-8.69,14.08-14.65
			c2.03,0.56,4.49-0.72,5.92-3.26c1.69-3,1.32-6.62-0.83-8.09c-0.48-0.33-1-0.52-1.55-0.59c0.23-3.2-0.04-6.23-0.2-9.43
			c-0.3-5.97-16.34-11.76-23.36-8.1C661.23,75.78,660.63,97.89,661.98,105.37z"/>
		<path class="st13" d="M687.75,81.99c0.69,0.7-0.89,11.71,0.33,11.76c1.21,0.05,5.47-5,5.47-5s0.22-0.3,1.55,0.59
			c1.33,0.89,1.66,2.43,1.66,2.43s5.35-10.24,4.73-12.53c-0.62-2.29-5.11-5.2-5.11-5.2s-0.37-2.43-2.89-5.25
			c-2.53-2.81-9.92-3.41-19.78-4.83c-9.77-1.41-16.74,4.71-7.88,11.57C673.97,81.84,687.75,81.99,687.75,81.99z"/>
		<path class="st18" d="M554.58,59.09l5.48,2.14c0.71,0.28,1.06,1.08,0.79,1.79l-17.88,45.83c-0.28,0.71-1.08,1.06-1.79,0.79
			l-5.47-2.14c-0.71-0.28-1.06-1.08-0.78-1.79l17.88-45.83C553.07,59.16,553.87,58.81,554.58,59.09z"/>
		<path class="st13" d="M689.65,78.77c-0.23,0.35-1.96,3.11-7.66,4.49c-5.7,1.38-6.86-1.73-6.86-1.73s-2.65,0.98-6.57-0.23
			c-3.92-1.21-2.02-3-2.02-3s-1.04,1.84-4.49-0.86c-3.46-2.71-0.23-6.22-0.23-6.22l2.07-3.17c0,0-0.4-1.84,1.5-4.03
			c1.9-2.19,5.82-1.21,5.82-1.21s1.67-1.73,5.3-1.38c3.63,0.35,5.65,2.71,5.65,2.71s2.88-1.15,5.93-0.63
			c3.05,0.52,4.49,3.17,4.49,3.17s3.34,0.46,4.84,2.59c1.5,2.13,0.29,4.61,0.29,4.61s3.4,0.52,3.28,3.23
			c-0.12,2.71-3.66,6.34-7.45,5.93C689.76,82.63,689.65,78.77,689.65,78.77z"/>
		<path class="st11" d="M545.55,81.94c0.73,0.67,0.84,1.01,1.31,2.22c0.92,2.36-2.07,7.86-4.21,8.67c-2.13,0.81-3.11,1.1-3.57-1.5
			c-0.33-1.84,1.76-6.75,3.44-9.21C543.48,80.73,544.03,80.54,545.55,81.94z"/>
		<path class="st11" d="M552.52,95.46l2.04-2.18c0,0-1.39-5.98-2.66-7.35c-1.26-1.37-6.12-6.26-6.68-5.75
			c-0.55,0.52-0.81,1.9,0.46,4.44c1.27,2.53,3.74,3.51,3.74,3.51s-0.8,4.26,0.12,7.03C550.46,97.93,552.52,95.46,552.52,95.46z"/>
		<polygon class="st28" points="546.8,74.41 555.06,78.44 553.45,82.36 545.15,78.76 		"/>
		<path class="st28" d="M551.89,79.11c0.23,0.35,1.67,1.64,3.54,4.7c1.87,3.05,1.18,10.4,1.67,10.28c0.49-0.12,2.25-0.35,2.25-0.35
			s0.92-5.53-0.63-9.13c-1.56-3.6-5.21-5.85-5.21-5.85L551.89,79.11z"/>
		<path class="st28" d="M551.95,80.72c0.4,0.2,2.42,1.47,6.77,1.3c4.35-0.17,6.02-2.13,6.02-2.13l-1.04-1.58c0,0-3.4,1.73-6.91,1.76
			c-3.51,0.03-4.72-0.37-4.72-0.37L551.95,80.72z"/>
	</g>
	<path class="st11" d="M1063.93,582.82c0.89-0.38,3.94-1.48,4.72-1.85c0.77-0.37,7.9-3.64,8.93-3.72c0.52-0.04,3.53,0.38,6.36,1.26
		c1.56,0.49,5.2,2.38,5.6,2.53c0.81,0.3-0.77,1.5-1.78,1.44c-1.18-0.07-4.38-1.86-4.38-1.86c-0.45,0.03-0.89,0.04-1.3,0.05
		c0.39,0.24,0.7,0.44,0.82,0.58c0.52,0.54,1.24,2.18,0.95,2.41c-0.29,0.23-0.75,0.62-1.89,0.54c-0.63-0.04-1.86-0.66-2.84-1.27
		c-0.76,2.43-6.05,4.71-8.3,4.94c-2.29,0.23-4.01-0.58-4.01-0.58L1063.93,582.82z"/>
	<path class="st29" d="M1043.73,506.82c2.16,1.17-1.56,58.04-1.56,58.04l25.89,16.4l-2.88,5.96l-35.09-18.29
		c0,0-0.97-56.45,1.85-60.28C1033.58,506.41,1041.9,505.83,1043.73,506.82z"/>
	<path class="st13" d="M1042.78,464.01c-1.29,1.17-3.59,8.32-4.39,12.76c-0.8,4.44,2.24,9.27,2.55,8.76
		c0.31-0.52,7.5-13.32,7.5-13.32L1042.78,464.01z"/>
	<path class="st15" d="M1049.71,490.39c0,0-2.1,3.33-2.84,11.09c-0.74,7.77-2.24,10.57-2.24,10.57l-13.78-10.13l12.64-21.3
		L1049.71,490.39z"/>
	<path class="st30" d="M1067.74,701.22H817.69c-11.84,0-21.44,13.4-21.44,29.94c0,16.53,9.6,29.93,21.44,29.94h250.05l-1.34-3.24
		c-3.4-8.21-5.16-17.35-5.16-26.7c0-9.35,1.75-18.48,5.16-26.7L1067.74,701.22z"/>
	<path class="st31" d="M818.71,701.49h224.96h22.85h10.29v-6.71h-7.51h-25.64H818.71c-15.05,0-26.35,16.99-26.35,36.38
		c0,19.38,11.3,36.38,26.35,36.38h223.16h27.44h7.51v-6.71h-10.29h-24.66H818.71c-11.73,0-21.25-13.28-21.25-29.67
		C797.47,714.77,806.98,701.49,818.71,701.49z"/>
	<path class="st32" d="M967.77,731.15c0-16.53,9.6-29.94,21.44-29.94H817.69c-11.84,0-21.44,13.4-21.44,29.94
		c0,16.53,9.6,29.93,21.44,29.94h171.51C977.37,761.09,967.77,747.69,967.77,731.15z"/>
	<path class="st30" d="M801.02,628.46h250.05c11.84,0,21.44,13.4,21.44,29.94c0,16.53-9.6,29.94-21.44,29.94H801.02l1.34-3.24
		c3.4-8.21,5.15-17.35,5.15-26.7c0-9.35-1.75-18.48-5.15-26.69L801.02,628.46z"/>
	<path class="st33" d="M1050.05,628.73H825.09h-22.86h-10.29v-6.71h7.51h25.64h224.96c15.05,0,26.35,16.99,26.35,36.38
		c0,19.38-11.3,36.38-26.35,36.38H826.89h-27.44h-7.51v-6.71h10.29h24.66h223.16c11.74,0,21.25-13.28,21.25-29.67
		C1071.3,642.01,1061.79,628.73,1050.05,628.73z"/>
	<path class="st33" d="M901,659.04c0-17.56-9.6-31.8-21.44-31.8h171.51c11.84,0,21.44,14.24,21.44,31.8c0,17.56-9.6,31.8-21.44,31.8
		H879.56C891.4,690.84,901,676.6,901,659.04z"/>
	<g>
		<rect x="817.65" y="708.45" class="st34" width="234.81" height="2.8"/>
		<rect x="817.65" y="719.28" class="st34" width="234.81" height="2.8"/>
		<rect x="817.65" y="740.95" class="st34" width="234.81" height="2.8"/>
		<rect x="817.65" y="730.12" class="st34" width="234.81" height="2.79"/>
		<rect x="817.65" y="751.78" class="st34" width="234.81" height="2.79"/>
	</g>
	<g>
		<rect x="813.18" y="636.19" class="st34" width="69.61" height="2.8"/>
		<rect x="813.18" y="647.02" class="st34" width="69.61" height="2.8"/>
		<rect x="813.18" y="668.69" class="st34" width="69.61" height="2.8"/>
		<rect x="813.18" y="657.86" class="st34" width="69.61" height="2.8"/>
		<rect x="813.18" y="679.52" class="st34" width="69.61" height="2.8"/>
	</g>
	<g>
		<g>
			<g>
				<path class="st35" d="M474.15,581.39h-10.44v-37.12h-70.65v37.12h-10.44v-42.34c0-2.89,2.33-5.22,5.22-5.22h81.09
					c2.89,0,5.22,2.34,5.22,5.22V581.39z"/>
			</g>
		</g>
		<path class="st36" d="M471.87,579.12v-40.07c0-1.63-1.32-2.95-2.95-2.95h-81.09c-1.63,0-2.95,1.32-2.95,2.95v40.07h5.89V542h75.2
			v37.12H471.87z"/>
		<g>
			<path class="st37" d="M565.22,751.13c0,9.02-7.53,16.4-16.73,16.4H308.27c-9.2,0-16.73-7.37-16.73-16.4v-168
				c0-9.02,7.53-16.4,16.73-16.4h240.22c9.2,0,16.73,7.38,16.73,16.4V751.13z"/>
		</g>
		<path class="st38" d="M559.05,751.13v-5.34c0-0.22-0.14-0.41-0.32-0.49c-0.36-0.15-0.74,0.12-0.74,0.49
			c0,1.72,0.29,5.36-0.28,7.54c-0.17,0.7,0.87,0.94,1.03,0.27C558.95,752.82,559.05,751.95,559.05,751.13L559.05,751.13z
			 M555.9,758.4c0.52-0.52-0.26-1.25-0.74-0.78c-1.25,1.2-2.72,1.97-4.39,2.4c-0.69,0.17-0.42,1.21,0.25,1.04
			C552.87,760.6,554.53,759.71,555.9,758.4L555.9,758.4z M545.58,761.37c0.22,0,0.41-0.14,0.49-0.32c0.15-0.36-0.12-0.74-0.49-0.74
			h-5.34c-0.22,0-0.41,0.14-0.49,0.32c-0.15,0.36,0.12,0.74,0.49,0.74H545.58L545.58,761.37z M534.9,761.37
			c0.22,0,0.41-0.14,0.49-0.32c0.15-0.36-0.12-0.74-0.49-0.74h-5.34c-0.22,0-0.41,0.14-0.49,0.32c-0.15,0.36,0.12,0.74,0.49,0.74
			H534.9L534.9,761.37z M524.22,761.37c0.22,0,0.41-0.14,0.49-0.32c0.15-0.36-0.12-0.74-0.49-0.74h-5.34
			c-0.22,0-0.41,0.14-0.49,0.32c-0.15,0.36,0.12,0.74,0.49,0.74H524.22L524.22,761.37z M513.53,761.37c0.22,0,0.41-0.14,0.49-0.32
			c0.15-0.36-0.12-0.74-0.49-0.74h-5.34c-0.22,0-0.41,0.14-0.49,0.32c-0.15,0.36,0.12,0.74,0.49,0.74H513.53L513.53,761.37z
			 M502.85,761.37c0.22,0,0.41-0.14,0.49-0.32c0.15-0.36-0.12-0.74-0.49-0.74h-5.34c-0.22,0-0.41,0.14-0.49,0.32
			c-0.15,0.36,0.12,0.74,0.49,0.74H502.85L502.85,761.37z M492.17,761.37c0.22,0,0.41-0.14,0.49-0.32c0.15-0.36-0.11-0.74-0.49-0.74
			h-5.34c-0.22,0-0.41,0.14-0.49,0.32c-0.15,0.36,0.11,0.74,0.49,0.74H492.17L492.17,761.37z M481.48,761.37
			c0.22,0,0.41-0.14,0.49-0.32c0.15-0.36-0.11-0.74-0.49-0.74h-5.34c-0.22,0-0.41,0.14-0.49,0.32c-0.15,0.36,0.11,0.74,0.49,0.74
			H481.48L481.48,761.37z M470.8,761.37c0.22,0,0.41-0.14,0.49-0.32c0.15-0.36-0.11-0.74-0.49-0.74h-5.34
			c-0.22,0-0.41,0.14-0.49,0.32c-0.15,0.36,0.11,0.74,0.49,0.74H470.8L470.8,761.37z M460.12,761.37c0.22,0,0.41-0.14,0.49-0.32
			c0.15-0.36-0.11-0.74-0.49-0.74h-5.34c-0.22,0-0.41,0.14-0.49,0.32c-0.15,0.36,0.11,0.74,0.49,0.74H460.12L460.12,761.37z
			 M449.44,761.37c0.22,0,0.41-0.14,0.49-0.32c0.15-0.36-0.11-0.74-0.49-0.74h-5.34c-0.22,0-0.41,0.14-0.49,0.32
			c-0.15,0.36,0.11,0.74,0.49,0.74H449.44L449.44,761.37z M438.75,761.37c0.22,0,0.41-0.14,0.49-0.32c0.15-0.36-0.11-0.74-0.49-0.74
			h-5.34c-0.22,0-0.41,0.14-0.49,0.32c-0.15,0.36,0.11,0.74,0.49,0.74H438.75L438.75,761.37z M428.07,761.37
			c0.22,0,0.41-0.14,0.49-0.32c0.15-0.36-0.11-0.74-0.49-0.74h-5.34c-0.22,0-0.41,0.14-0.49,0.32c-0.15,0.36,0.11,0.74,0.49,0.74
			H428.07L428.07,761.37z M417.39,761.37c0.22,0,0.41-0.14,0.49-0.32c0.15-0.36-0.11-0.74-0.49-0.74h-5.34
			c-0.22,0-0.41,0.14-0.49,0.32c-0.15,0.36,0.11,0.74,0.49,0.74H417.39L417.39,761.37z M406.7,761.37c0.22,0,0.41-0.14,0.49-0.32
			c0.15-0.36-0.11-0.74-0.49-0.74h-5.34c-0.22,0-0.41,0.14-0.49,0.32c-0.15,0.36,0.11,0.74,0.49,0.74H406.7L406.7,761.37z
			 M396.02,761.37c0.22,0,0.41-0.14,0.49-0.32c0.15-0.36-0.11-0.74-0.49-0.74h-5.34c-0.22,0-0.41,0.14-0.49,0.32
			c-0.15,0.36,0.11,0.74,0.49,0.74H396.02L396.02,761.37z M385.34,761.37c0.22,0,0.41-0.14,0.49-0.32c0.15-0.36-0.11-0.74-0.49-0.74
			H380c-0.22,0-0.41,0.14-0.49,0.32c-0.15,0.36,0.11,0.74,0.49,0.74H385.34L385.34,761.37z M374.66,761.37
			c0.22,0,0.41-0.14,0.49-0.32c0.15-0.36-0.11-0.74-0.49-0.74h-5.34c-0.22,0-0.41,0.14-0.49,0.32c-0.15,0.36,0.11,0.74,0.49,0.74
			H374.66L374.66,761.37z M363.97,761.37c0.22,0,0.41-0.14,0.49-0.32c0.15-0.36-0.12-0.74-0.49-0.74h-5.34
			c-0.22,0-0.41,0.14-0.49,0.32c-0.15,0.36,0.11,0.74,0.49,0.74H363.97L363.97,761.37z M353.29,761.37c0.22,0,0.41-0.14,0.49-0.32
			c0.15-0.36-0.11-0.74-0.49-0.74h-5.34c-0.22,0-0.41,0.14-0.49,0.32c-0.15,0.36,0.11,0.74,0.49,0.74H353.29L353.29,761.37z
			 M342.61,761.37c0.22,0,0.41-0.14,0.49-0.32c0.15-0.36-0.11-0.74-0.49-0.74h-5.34c-0.22,0-0.41,0.14-0.49,0.32
			c-0.15,0.36,0.11,0.74,0.49,0.74H342.61L342.61,761.37z M331.92,761.37c0.22,0,0.41-0.14,0.49-0.32c0.15-0.36-0.11-0.74-0.49-0.74
			h-5.34c-0.22,0-0.41,0.14-0.49,0.32c-0.15,0.36,0.11,0.74,0.49,0.74H331.92L331.92,761.37z M321.24,761.37
			c0.22,0,0.41-0.14,0.49-0.32c0.15-0.36-0.11-0.74-0.49-0.74h-5.34c-0.22,0-0.41,0.14-0.49,0.32c-0.15,0.36,0.11,0.74,0.49,0.74
			H321.24L321.24,761.37z M310.56,761.37c0.22,0,0.41-0.14,0.49-0.32c0.15-0.36-0.11-0.74-0.49-0.74h-2.29
			c-0.95,0-1.95-0.14-2.85-0.43c-0.59-0.22-1.05,0.75-0.32,1.02c0.98,0.32,2.14,0.48,3.17,0.48H310.56L310.56,761.37z M300.4,757.93
			c0.53,0.53,1.25-0.26,0.78-0.73c-1.1-1.19-1.99-2.83-2.25-4.43c-0.18-0.7-1.14-0.51-1.05,0.19
			C298.24,754.84,299.1,756.53,300.4,757.93L300.4,757.93z M297.71,747.54c0,0.22,0.14,0.41,0.32,0.49
			c0.36,0.15,0.74-0.11,0.74-0.49v-5.34c0-0.22-0.14-0.41-0.32-0.49c-0.36-0.15-0.74,0.11-0.74,0.49V747.54L297.71,747.54z
			 M297.71,736.85c0,0.22,0.14,0.41,0.32,0.49c0.36,0.15,0.74-0.11,0.74-0.49v-5.34c0-0.22-0.14-0.41-0.32-0.49
			c-0.36-0.15-0.74,0.11-0.74,0.49V736.85L297.71,736.85z M297.71,726.17c0,0.22,0.14,0.41,0.32,0.49c0.36,0.15,0.74-0.12,0.74-0.49
			v-5.34c0-0.22-0.14-0.41-0.32-0.49c-0.36-0.15-0.74,0.11-0.74,0.49V726.17L297.71,726.17z M297.71,715.49
			c0,0.22,0.14,0.41,0.32,0.49c0.36,0.15,0.74-0.11,0.74-0.49v-5.34c0-0.22-0.14-0.41-0.32-0.49c-0.36-0.15-0.74,0.11-0.74,0.49
			V715.49L297.71,715.49z M297.71,704.81c0,0.22,0.14,0.41,0.32,0.49c0.36,0.15,0.74-0.11,0.74-0.49v-5.34
			c0-0.22-0.14-0.41-0.32-0.49c-0.36-0.15-0.74,0.12-0.74,0.49V704.81L297.71,704.81z M297.71,694.12c0,0.22,0.14,0.41,0.32,0.49
			c0.36,0.15,0.74-0.12,0.74-0.49v-5.34c0-0.22-0.14-0.41-0.32-0.49c-0.36-0.15-0.74,0.12-0.74,0.49V694.12L297.71,694.12z
			 M297.71,683.44c0,0.22,0.14,0.41,0.32,0.49c0.36,0.15,0.74-0.12,0.74-0.49v-5.34c0-0.22-0.14-0.41-0.32-0.49
			c-0.36-0.15-0.74,0.12-0.74,0.49V683.44L297.71,683.44z M297.71,672.76c0,0.22,0.14,0.41,0.32,0.49c0.36,0.15,0.74-0.12,0.74-0.49
			v-5.34c0-0.22-0.14-0.41-0.32-0.49c-0.36-0.15-0.74,0.12-0.74,0.49V672.76L297.71,672.76z M297.71,662.07
			c0,0.22,0.14,0.41,0.32,0.49c0.36,0.15,0.74-0.12,0.74-0.49v-5.34c0-0.22-0.14-0.41-0.32-0.49c-0.36-0.15-0.74,0.12-0.74,0.49
			V662.07L297.71,662.07z M297.71,651.39c0,0.22,0.14,0.41,0.32,0.49c0.36,0.15,0.74-0.12,0.74-0.49v-5.34
			c0-0.22-0.14-0.41-0.32-0.49c-0.36-0.15-0.74,0.12-0.74,0.49V651.39L297.71,651.39z M297.71,640.71c0,0.22,0.14,0.41,0.32,0.49
			c0.36,0.15,0.74-0.12,0.74-0.49v-5.34c0-0.22-0.14-0.41-0.32-0.49c-0.36-0.15-0.74,0.12-0.74,0.49V640.71L297.71,640.71z
			 M297.71,630.03c0,0.22,0.14,0.41,0.32,0.49c0.36,0.15,0.74-0.12,0.74-0.49v-5.34c0-0.22-0.14-0.41-0.32-0.49
			c-0.36-0.15-0.74,0.12-0.74,0.49V630.03L297.71,630.03z M297.71,619.34c0,0.22,0.14,0.41,0.32,0.49c0.36,0.15,0.74-0.12,0.74-0.49
			V614c0-0.22-0.14-0.41-0.32-0.49c-0.36-0.15-0.74,0.12-0.74,0.49V619.34L297.71,619.34z M297.71,608.66
			c0,0.22,0.14,0.41,0.32,0.49c0.36,0.15,0.74-0.12,0.74-0.49v-5.34c0-0.22-0.14-0.41-0.32-0.49c-0.36-0.15-0.74,0.12-0.74,0.49
			V608.66L297.71,608.66z M297.71,597.98c0,0.22,0.14,0.41,0.32,0.49c0.36,0.15,0.74-0.12,0.74-0.49v-5.34
			c0-0.22-0.14-0.41-0.32-0.49c-0.36-0.15-0.74,0.12-0.74,0.49V597.98L297.71,597.98z M297.71,587.29c0,0.22,0.14,0.41,0.32,0.49
			c0.36,0.15,0.74-0.12,0.74-0.49c0-1.61-0.14-3.59,0.07-5.27c0.09-0.7-0.97-0.83-1.06-0.14
			C297.57,583.62,297.71,585.63,297.71,587.29L297.71,587.29z M300.01,576.78c-0.47,0.65,0.47,1.18,0.82,0.68
			c1.13-1.37,2.44-2.24,4.08-2.89c0.67-0.25,0.28-1.25-0.37-1C302.75,574.27,301.24,575.29,300.01,576.78L300.01,576.78z M310,572.9
			c-0.22,0-0.41,0.14-0.49,0.32c-0.15,0.36,0.12,0.74,0.49,0.74h5.34c0.22,0,0.41-0.14,0.49-0.32c0.15-0.36-0.11-0.75-0.49-0.75H310
			L310,572.9z M320.68,572.9c-0.22,0-0.41,0.14-0.49,0.32c-0.15,0.36,0.11,0.74,0.49,0.74h5.34c0.22,0,0.41-0.14,0.49-0.32
			c0.15-0.36-0.11-0.75-0.49-0.75H320.68L320.68,572.9z M331.36,572.9c-0.22,0-0.41,0.14-0.49,0.32c-0.15,0.36,0.11,0.74,0.49,0.74
			h5.34c0.22,0,0.41-0.14,0.49-0.32c0.15-0.36-0.12-0.75-0.49-0.75H331.36L331.36,572.9z M342.04,572.9c-0.22,0-0.41,0.14-0.49,0.32
			c-0.15,0.36,0.11,0.74,0.49,0.74h5.34c0.22,0,0.41-0.14,0.49-0.32c0.15-0.36-0.11-0.75-0.49-0.75H342.04L342.04,572.9z
			 M352.73,572.9c-0.22,0-0.41,0.14-0.49,0.32c-0.15,0.36,0.11,0.74,0.49,0.74h5.34c0.22,0,0.41-0.14,0.49-0.32
			c0.15-0.36-0.11-0.75-0.49-0.75H352.73L352.73,572.9z M363.41,572.9c-0.22,0-0.41,0.14-0.49,0.32c-0.15,0.36,0.11,0.74,0.49,0.74
			h5.34c0.22,0,0.41-0.14,0.49-0.32c0.15-0.36-0.11-0.75-0.49-0.75H363.41L363.41,572.9z M374.09,572.9c-0.22,0-0.41,0.14-0.49,0.32
			c-0.15,0.36,0.11,0.74,0.49,0.74h5.34c0.22,0,0.41-0.14,0.49-0.32c0.15-0.36-0.11-0.75-0.49-0.75H374.09L374.09,572.9z
			 M384.77,572.9c-0.22,0-0.41,0.14-0.49,0.32c-0.15,0.36,0.11,0.74,0.49,0.74h5.34c0.22,0,0.41-0.14,0.49-0.32
			c0.15-0.36-0.11-0.75-0.49-0.75H384.77L384.77,572.9z M395.46,572.9c-0.22,0-0.41,0.14-0.49,0.32c-0.15,0.36,0.11,0.74,0.49,0.74
			h5.34c0.22,0,0.41-0.14,0.49-0.32c0.15-0.36-0.11-0.75-0.49-0.75H395.46L395.46,572.9z M406.14,572.9c-0.22,0-0.41,0.14-0.49,0.32
			c-0.15,0.36,0.11,0.74,0.49,0.74h5.34c0.22,0,0.41-0.14,0.49-0.32c0.15-0.36-0.11-0.75-0.49-0.75H406.14L406.14,572.9z
			 M416.82,572.9c-0.22,0-0.41,0.14-0.49,0.32c-0.15,0.36,0.11,0.74,0.49,0.74h5.34c0.22,0,0.41-0.14,0.49-0.32
			c0.15-0.36-0.11-0.75-0.49-0.75H416.82L416.82,572.9z M427.51,572.9c-0.22,0-0.41,0.14-0.49,0.32c-0.15,0.36,0.11,0.74,0.49,0.74
			h5.34c0.22,0,0.41-0.14,0.49-0.32c0.15-0.36-0.11-0.75-0.49-0.75H427.51L427.51,572.9z M438.19,572.9c-0.22,0-0.41,0.14-0.49,0.32
			c-0.15,0.36,0.11,0.74,0.49,0.74h5.34c0.22,0,0.41-0.14,0.49-0.32c0.15-0.36-0.11-0.75-0.49-0.75H438.19L438.19,572.9z
			 M448.87,572.9c-0.22,0-0.41,0.14-0.49,0.32c-0.15,0.36,0.11,0.74,0.49,0.74h5.34c0.22,0,0.41-0.14,0.49-0.32
			c0.15-0.36-0.11-0.75-0.49-0.75H448.87L448.87,572.9z M459.56,572.9c-0.22,0-0.41,0.14-0.49,0.32c-0.15,0.36,0.11,0.74,0.49,0.74
			h5.34c0.22,0,0.41-0.14,0.49-0.32c0.15-0.36-0.11-0.75-0.49-0.75H459.56L459.56,572.9z M470.24,572.9c-0.22,0-0.41,0.14-0.49,0.32
			c-0.15,0.36,0.11,0.74,0.49,0.74h5.34c0.22,0,0.41-0.14,0.49-0.32c0.15-0.36-0.11-0.75-0.49-0.75H470.24L470.24,572.9z
			 M480.92,572.9c-0.22,0-0.41,0.14-0.49,0.32c-0.15,0.36,0.11,0.74,0.49,0.74h5.34c0.22,0,0.41-0.14,0.49-0.32
			c0.15-0.36-0.11-0.75-0.49-0.75H480.92L480.92,572.9z M491.6,572.9c-0.22,0-0.41,0.14-0.49,0.32c-0.15,0.36,0.11,0.74,0.49,0.74
			h5.34c0.22,0,0.41-0.14,0.49-0.32c0.15-0.36-0.11-0.75-0.49-0.75H491.6L491.6,572.9z M502.29,572.9c-0.22,0-0.41,0.14-0.49,0.32
			c-0.15,0.36,0.11,0.74,0.49,0.74h5.34c0.22,0,0.41-0.14,0.49-0.32c0.15-0.36-0.11-0.75-0.49-0.75H502.29L502.29,572.9z
			 M512.97,572.9c-0.22,0-0.41,0.14-0.49,0.32c-0.15,0.36,0.11,0.74,0.49,0.74h5.34c0.22,0,0.41-0.14,0.49-0.32
			c0.15-0.36-0.11-0.75-0.49-0.75H512.97L512.97,572.9z M523.65,572.9c-0.22,0-0.41,0.14-0.49,0.32c-0.15,0.36,0.11,0.74,0.49,0.74
			h5.34c0.22,0,0.41-0.14,0.49-0.32c0.15-0.36-0.11-0.75-0.49-0.75H523.65L523.65,572.9z M534.34,572.9c-0.22,0-0.41,0.14-0.49,0.32
			c-0.15,0.36,0.11,0.74,0.49,0.74h5.34c0.22,0,0.41-0.14,0.49-0.32c0.15-0.36-0.11-0.75-0.49-0.75H534.34L534.34,572.9z
			 M545.02,572.9c-0.22,0-0.41,0.14-0.49,0.32c-0.15,0.36,0.11,0.74,0.49,0.74c1.1,0,3.77-0.15,5.23,0.16
			c0.61,0.15,0.96-0.86,0.2-1.05C548.86,572.75,546.38,572.9,545.02,572.9L545.02,572.9z M555.46,575.48
			c-0.49-0.42-1.24,0.27-0.69,0.81c1.26,1,2.29,2.61,2.79,4.13c0.27,0.72,1.24,0.27,1.02-0.32
			C558.04,578.41,556.84,576.58,555.46,575.48L555.46,575.48z M559.05,585.55c0-0.22-0.14-0.41-0.32-0.49
			c-0.36-0.15-0.74,0.11-0.74,0.49v5.34c0,0.22,0.14,0.41,0.32,0.49c0.36,0.15,0.75-0.11,0.75-0.49V585.55L559.05,585.55z
			 M559.05,596.23c0-0.22-0.14-0.41-0.32-0.49c-0.36-0.15-0.74,0.11-0.74,0.49v5.34c0,0.22,0.14,0.41,0.32,0.49
			c0.36,0.15,0.75-0.11,0.75-0.49V596.23L559.05,596.23z M559.05,606.92c0-0.22-0.14-0.41-0.32-0.49c-0.36-0.15-0.74,0.11-0.74,0.49
			v5.34c0,0.22,0.14,0.41,0.32,0.49c0.36,0.15,0.75-0.11,0.75-0.49V606.92L559.05,606.92z M559.05,617.6c0-0.22-0.14-0.41-0.32-0.49
			c-0.36-0.15-0.74,0.11-0.74,0.49v5.34c0,0.22,0.14,0.41,0.32,0.49c0.36,0.15,0.75-0.11,0.75-0.49V617.6L559.05,617.6z
			 M559.05,628.28c0-0.22-0.14-0.41-0.32-0.49c-0.36-0.15-0.74,0.11-0.74,0.49v5.34c0,0.22,0.14,0.41,0.32,0.49
			c0.36,0.15,0.75-0.11,0.75-0.49V628.28L559.05,628.28z M559.05,638.96c0-0.22-0.14-0.41-0.32-0.49c-0.36-0.15-0.74,0.11-0.74,0.49
			v5.34c0,0.22,0.14,0.41,0.32,0.49c0.36,0.15,0.75-0.11,0.75-0.49V638.96L559.05,638.96z M559.05,649.65
			c0-0.22-0.14-0.41-0.32-0.49c-0.36-0.15-0.74,0.11-0.74,0.49v5.34c0,0.22,0.14,0.41,0.32,0.49c0.36,0.15,0.75-0.11,0.75-0.49
			V649.65L559.05,649.65z M559.05,660.33c0-0.22-0.14-0.41-0.32-0.49c-0.36-0.15-0.74,0.11-0.74,0.49v5.34
			c0,0.22,0.14,0.41,0.32,0.49c0.36,0.15,0.75-0.11,0.75-0.49V660.33L559.05,660.33z M559.05,671.01c0-0.22-0.14-0.41-0.32-0.49
			c-0.36-0.15-0.74,0.11-0.74,0.49v5.34c0,0.22,0.14,0.41,0.32,0.49c0.36,0.15,0.75-0.11,0.75-0.49V671.01L559.05,671.01z
			 M559.05,681.7c0-0.22-0.14-0.41-0.32-0.49c-0.36-0.15-0.74,0.11-0.74,0.49v5.34c0,0.22,0.14,0.41,0.32,0.49
			c0.36,0.15,0.75-0.11,0.75-0.49V681.7L559.05,681.7z M559.05,692.38c0-0.22-0.14-0.41-0.32-0.49c-0.36-0.15-0.74,0.11-0.74,0.49
			v5.34c0,0.22,0.14,0.41,0.32,0.49c0.36,0.15,0.75-0.11,0.75-0.49V692.38L559.05,692.38z M559.05,703.06
			c0-0.22-0.14-0.41-0.32-0.49c-0.36-0.15-0.74,0.11-0.74,0.49v5.34c0,0.22,0.14,0.41,0.32,0.49c0.36,0.15,0.75-0.11,0.75-0.49
			V703.06L559.05,703.06z M559.05,713.74c0-0.22-0.14-0.41-0.32-0.49c-0.36-0.15-0.74,0.11-0.74,0.49v5.34
			c0,0.22,0.14,0.41,0.32,0.49c0.36,0.15,0.75-0.11,0.75-0.49V713.74L559.05,713.74z M559.05,724.43c0-0.22-0.14-0.41-0.32-0.49
			c-0.36-0.15-0.74,0.11-0.74,0.49v5.34c0,0.22,0.14,0.41,0.32,0.49c0.36,0.15,0.75-0.11,0.75-0.49V724.43L559.05,724.43z
			 M559.05,735.11c0-0.22-0.14-0.41-0.32-0.49c-0.36-0.15-0.74,0.12-0.74,0.49v5.34c0,0.22,0.14,0.41,0.32,0.49
			c0.36,0.15,0.75-0.12,0.75-0.49V735.11z"/>
		<path class="st39" d="M285.83,564.48c0.82,52.04,64.31,94.05,142.55,94.05c78.24,0,141.73-42.02,142.55-94.05H285.83z"/>
		<path class="st40" d="M441.77,682.01h-26.79c-1.82,0-3.3-1.48-3.3-3.3v-36.14c0-1.82,1.48-3.3,3.3-3.3h26.79
			c1.82,0,3.3,1.48,3.3,3.3v36.14C445.07,680.54,443.6,682.01,441.77,682.01z"/>
		<path class="st41" d="M436.24,677.34h-15.73c-2.29,0-4.16-1.86-4.16-4.16v-25.08c0-2.29,1.86-4.16,4.16-4.16h15.73
			c2.29,0,4.16,1.86,4.16,4.16v25.08C440.4,675.48,438.54,677.34,436.24,677.34z"/>
	</g>
	<g>
		<polygon class="st42" points="450.89,434.65 664.97,403.69 879.05,434.65 879.05,439.77 664.97,470.73 450.89,439.77 		"/>
		<polygon class="st13" points="450.89,439.77 664.97,408.81 879.05,439.77 664.97,470.73 		"/>
		<polygon class="st43" points="571.98,445.65 757.96,445.65 767.43,520.5 562.51,520.5 		"/>
		<path class="st43" d="M664.96,460.92c51.22,0,92.99-6.76,92.99-15.04c0-8.28-41.77-15.04-92.99-15.04
			c-51.21,0-92.99,6.76-92.99,15.04C571.97,454.17,613.74,460.92,664.96,460.92z"/>
		<path class="st44" d="M664.97,535.53c56.43,0,102.46-6.76,102.46-15.04c0-8.28-46.03-15.04-102.46-15.04
			c-56.43,0-102.46,6.76-102.46,15.04C562.51,528.78,608.54,535.53,664.97,535.53z"/>
		<path class="st45" d="M849.74,430.41v29.6v132.24c0,1.76,1.44,3.2,3.2,3.2h0c1.76,0,3.2-1.44,3.2-3.2V430.41v-3.2
			c0-1.76-1.44-3.2-3.2-3.2h-3.2h-44.25L849.74,430.41z"/>
		<path class="st45" d="M852.72,554.5c11.18,0,20.45,51-0.14,71.52C831.87,605.38,841.47,554.5,852.72,554.5z"/>
		<path class="st46" d="M850.64,551h4.4c1.65,0,3,1.35,3,3v0c0,1.65-1.35,3-3,3h-4.4c-1.65,0-3-1.35-3-3v0
			C847.64,552.34,848.99,551,850.64,551z"/>
		<path class="st47" d="M752.85,458.02c-50.38,19.97-111.53,31.66-177.45,31.66c-3,0-6-0.02-8.98-0.07l-3.83,30.31
			c2.04-8.04,47.1-14.47,102.38-14.47c55.29,0,100.35,6.43,102.39,14.47l-7.95-62.85l-0.21-1.63
			C757.1,456.32,754.99,457.18,752.85,458.02z"/>
	</g>
	<g>
		<rect x="508.25" y="542.85" class="st48" width="313.32" height="224.68"/>
		<rect x="508.25" y="540.04" class="st49" width="313.32" height="224.68"/>
		<path class="st30" d="M512.2,628.81v111.86c22.2-5.38,48.27-8.49,76.15-8.49c27.88,0,53.95,3.1,76.15,8.49V628.81V528.76
			c-22.2-5.38-48.27-8.49-76.15-8.49c-27.88,0-53.95,3.1-76.15,8.49V628.81z"/>
		<path class="st50" d="M664.5,628.81v111.86c22.2-5.39,48.27-8.49,76.15-8.49c27.88,0,53.95,3.1,76.15,8.49V628.81V528.76
			c-22.2-5.38-48.27-8.49-76.15-8.49c-27.88,0-53.95,3.1-76.15,8.49V628.81z"/>
		<path class="st51" d="M512.22,746.79c22.24-5.49,48.34-8.73,76.28-8.9c27.78-0.17,53.79,2.71,76.01,7.87l-0.02-3.31
			c-22.17-5.12-48.09-7.99-75.77-7.81c-28.04,0.17-54.23,3.44-76.51,8.96L512.22,746.79z"/>
		<path class="st51" d="M512.22,752.01c22.24-5.49,48.34-8.73,76.28-8.9c27.78-0.17,53.79,2.71,76.01,7.87l-0.02-3.31
			c-22.17-5.12-48.09-7.99-75.77-7.81c-28.04,0.17-54.23,3.44-76.51,8.96L512.22,752.01z"/>
		<path class="st51" d="M512.22,757.23c22.24-5.49,48.34-8.73,76.28-8.9c27.78-0.17,53.79,2.71,76.01,7.87l-0.02-3.31
			c-22.17-5.12-48.09-7.99-75.77-7.81c-28.04,0.17-54.23,3.44-76.51,8.96L512.22,757.23z"/>
		<path class="st52" d="M816.79,746.79c-22.24-5.49-48.34-8.73-76.28-8.9c-27.78-0.17-53.79,2.71-76.01,7.87l0.02-3.31
			c22.17-5.12,48.09-7.99,75.77-7.81c28.04,0.17,54.23,3.44,76.51,8.96L816.79,746.79z"/>
		<path class="st52" d="M816.79,752.01c-22.24-5.49-48.34-8.73-76.28-8.9c-27.78-0.17-53.79,2.71-76.01,7.87l0.02-3.31
			c22.17-5.12,48.09-7.99,75.77-7.81c28.04,0.17,54.23,3.44,76.51,8.96L816.79,752.01z"/>
		<path class="st52" d="M816.79,757.23c-22.24-5.49-48.34-8.73-76.28-8.9c-27.78-0.17-53.79,2.71-76.01,7.87l0.02-3.31
			c22.17-5.12,48.09-7.99,75.77-7.81c28.04,0.17,54.23,3.44,76.51,8.96L816.79,757.23z"/>
		<path class="st53" d="M803.49,573.52c-18.35-4.53-39.89-7.2-62.95-7.35c-22.93-0.14-44.39,2.24-62.72,6.49l0.02-2.73
			c18.29-4.23,39.69-6.59,62.53-6.45c23.14,0.14,44.75,2.84,63.14,7.4L803.49,573.52z"/>
		<path class="st53" d="M803.49,595.03c-18.35-4.53-39.89-7.2-62.95-7.35c-22.93-0.14-44.39,2.24-62.72,6.49l0.02-2.73
			c18.29-4.23,39.69-6.59,62.53-6.45c23.14,0.14,44.75,2.84,63.14,7.4L803.49,595.03z"/>
		<path class="st53" d="M803.49,620.05c-18.35-4.53-39.89-7.2-62.95-7.35c-22.93-0.14-44.39,2.24-62.72,6.49l0.02-2.73
			c18.29-4.23,39.69-6.59,62.53-6.45c23.14,0.14,44.75,2.84,63.14,7.4L803.49,620.05z"/>
		<path class="st53" d="M803.49,644.22c-18.35-4.53-39.89-7.2-62.95-7.35c-22.93-0.14-44.39,2.24-62.72,6.49l0.02-2.73
			c18.29-4.23,39.69-6.59,62.53-6.45c23.14,0.14,44.75,2.84,63.14,7.4L803.49,644.22z"/>
		<path class="st53" d="M803.49,665.74c-18.35-4.53-39.89-7.2-62.95-7.35c-22.93-0.14-44.39,2.24-62.72,6.49l0.02-2.73
			c18.29-4.23,39.69-6.59,62.53-6.45c23.14,0.14,44.75,2.84,63.14,7.4L803.49,665.74z"/>
		<path class="st53" d="M803.49,690.76c-18.35-4.53-39.89-7.2-62.95-7.35c-22.93-0.14-44.39,2.24-62.72,6.49l0.02-2.73
			c18.29-4.23,39.69-6.59,62.53-6.45c23.14,0.14,44.75,2.84,63.14,7.4L803.49,690.76z"/>
		<path class="st54" d="M654.02,572.25c-18.35-4.53-39.89-7.2-62.95-7.35c-22.93-0.14-44.39,2.24-62.72,6.49l0.02-2.73
			c18.29-4.23,39.69-6.59,62.53-6.45c23.14,0.14,44.75,2.84,63.14,7.4L654.02,572.25z"/>
		<path class="st54" d="M654.02,593.76c-18.35-4.53-39.89-7.2-62.95-7.35c-22.93-0.14-44.39,2.24-62.72,6.49l0.02-2.73
			c18.29-4.23,39.69-6.59,62.53-6.45c23.14,0.14,44.75,2.84,63.14,7.4L654.02,593.76z"/>
		<path class="st54" d="M654.02,618.78c-18.35-4.53-39.89-7.2-62.95-7.35c-22.93-0.14-44.39,2.24-62.72,6.49l0.02-2.73
			c18.29-4.23,39.69-6.59,62.53-6.45c23.14,0.14,44.75,2.84,63.14,7.4L654.02,618.78z"/>
		<path class="st54" d="M654.02,642.95c-18.35-4.53-39.89-7.2-62.95-7.35c-22.93-0.14-44.39,2.24-62.72,6.49l0.02-2.73
			c18.29-4.23,39.69-6.59,62.53-6.45c23.14,0.14,44.75,2.84,63.14,7.4L654.02,642.95z"/>
		<path class="st54" d="M654.02,664.46c-18.35-4.53-39.89-7.21-62.95-7.35c-22.93-0.14-44.39,2.24-62.72,6.49l0.02-2.73
			c18.29-4.23,39.69-6.59,62.53-6.45c23.14,0.14,44.75,2.84,63.14,7.4L654.02,664.46z"/>
		<path class="st54" d="M654.02,689.48c-18.35-4.53-39.89-7.2-62.95-7.35c-22.93-0.14-44.39,2.24-62.72,6.49l0.02-2.73
			c18.29-4.23,39.69-6.59,62.53-6.45c23.14,0.14,44.75,2.84,63.14,7.4L654.02,689.48z"/>
	</g>
	<g>
		<g>
			<path class="st55" d="M831.78,513.18c-3.54,5.5-8.39,15.09-13.11,26.28c-0.06,0.14-0.12,0.28-0.17,0.42l8.01,3.35
				c0.06-0.14,0.12-0.28,0.18-0.42c4.71-11.19,8.2-21.35,9.66-27.72L831.78,513.18z"/>
		</g>
		<path class="st56" d="M826.32,523.77l6.24,2.63c3.43,1.45,5.12,5.28,3.76,8.51l-0.12,0.3c-1.36,3.23-5.29,4.69-8.72,3.24
			l-6.24-2.63c-3.43-1.45-5.12-5.28-3.76-8.51l0.13-0.3C818.97,523.78,822.89,522.32,826.32,523.77z"/>
		<path class="st57" d="M817.61,527.01c-10.82,14.14-24.65,39.44-37.24,69.37c-0.16,0.37-0.31,0.75-0.47,1.12l16.14,6.78h0
			l16.12,6.83c0.16-0.37,0.32-0.75,0.48-1.12c12.66-29.91,21.12-57.47,23.69-75.09l-9.35-3.96h0L817.61,527.01z"/>
		<path class="st58" d="M812.68,532.59c-1.38,2.01-2.79,4.17-4.23,6.47l12.86,5.29l0,0l12.09,5.14c0.64-2.63,1.2-5.15,1.68-7.55
			l-10.82-4.6h0L812.68,532.59z"/>
		<path class="st56" d="M796.03,604.29L796.03,604.29l-16.14-6.78c-0.29,0.7-0.59,1.39-0.88,2.1
			c-23.64,56.22-41.79,107.01-50.19,138.57l9.12,3.83h0l9.11,3.86c16.75-28.04,40.45-76.49,64.22-132.66c0.3-0.71,0.59-1.4,0.89-2.1
			L796.03,604.29z"/>
		<path class="st55" d="M736.39,757.3c1.89-4.46-0.37-7.82-1.39-8.26l-0.01,0l-0.01-0.01c-1.03-0.43-5.01,0.3-6.89,4.76
			c-1.87,4.46-0.93,10.98,0.08,11.41h0l0,0C729.17,765.63,734.5,761.76,736.39,757.3z"/>
		<path class="st57" d="M747.05,745.87c-3.73,7.23-8.99,12.41-12.4,15.54c-2.77-1.17-5.54-2.34-8.31-3.5
			c-0.14-4.63,0.01-11.97,2.58-19.68C734.97,740.77,741.01,743.31,747.05,745.87z"/>
		<path class="st58" d="M826.45,538.29c12.49,5.27,14.85,4.66,14.45,14.36l-17.41-7.34L826.45,538.29z"/>
		<path class="st58" d="M835.62,546.86c1.54,8.61-6.39,42.27-15.28,52.83c-4.62,5.5-6.28,10.54-5.36,11.45
			c0.93,0.92,7.55-5.06,8.88-6.51c4.76-5.16,18.31-41.83,16.97-55.98L835.62,546.86z"/>
		<path class="st59" d="M809.15,539.35c-9.09,14.51-19.29,34.45-28.79,57.03c-0.16,0.37-0.31,0.75-0.47,1.12l16.14,6.78l25.28-59.93
			L809.15,539.35z"/>
		<path class="st60" d="M796.03,604.29l-16.14-6.78l0,0c-0.29,0.7-0.59,1.39-0.88,2.1c-23.64,56.22-41.79,107.01-50.19,138.57
			l0.11,0.04c0.51,0.21,1.02,0.43,1.53,0.64l7.48,3.14L796.03,604.29z"/>
		<path class="st59" d="M730.46,738.87l-1.53-0.64c-2.57,7.71-2.72,15.05-2.58,19.68c0.24,0.1,0.49,0.2,0.73,0.31
			c1.14,0.48,2.29,0.96,3.43,1.44l4.48-10.62l2.96-7.02C735.45,740.97,732.95,739.92,730.46,738.87z"/>
		<path class="st59" d="M813.38,532.88l6.9,2.84l3.99,1.64l0.09-0.22l2.61-6.19l-3.8-1.6l-5.56-2.33
			C816.24,528.8,814.83,530.75,813.38,532.88z"/>
		<path class="st60" d="M817.61,527.01l5.56,2.33l3.8,1.6l2.47-5.86l-3.12-1.32c-0.12-0.05-0.25-0.1-0.38-0.15
			C822.61,522.43,818.92,523.9,817.61,527.01z"/>
	</g>
	<g>
		<polygon class="st61" points="784.32,767.53 798.05,755.81 811.78,744.09 815.66,737.77 796.88,725.8 792.82,732.45 
			788.53,749.97 		"/>
		<polygon class="st25" points="789.8,762.8 786.02,760.46 784.32,767.53 		"/>
		<path class="st62" d="M962.2,477.79l0.4,0.23c5.09,3.14,6.71,9.89,3.57,14.99l-154.4,251.08l-0.08-0.05
			c0.64-1.61-0.01-3.47-1.58-4.46c-1.55-0.93-3.45-0.67-4.66,0.62c0.77-1.64,0.14-3.64-1.51-4.68c-1.57-0.99-3.64-0.62-4.81,0.8
			c0.77-1.64,0.18-3.72-1.45-4.7c-1.65-1.04-3.72-0.66-4.89,0.75l154.42-251.02C950.34,476.21,957.09,474.59,962.2,477.79z"/>
		
			<rect x="947.71" y="482.8" transform="matrix(0.5232 -0.8522 0.8522 0.5232 33.2289 1047.2388)" class="st63" width="9.64" height="22.25"/>
		<path class="st64" d="M810.11,739.59c1.57,0.99,2.22,2.85,1.58,4.46l0.08,0.05l147.7-240.24l-6.32-3.88L809.38,733.8l-3.93,6.4
			C806.66,738.92,808.56,738.66,810.11,739.59z"/>
		<path class="st64" d="M797.47,731.83c1.57,0.99,2.16,2.87,1.58,4.45l0.08,0.05l147.7-240.24l-6.32-3.88L796.74,726.04l-3.92,6.4
			C793.96,731.18,795.92,730.9,797.47,731.83z"/>
	</g>
	<path class="st42" d="M1078.16,678.74l-2.77,7.83l-1.18,7.62c0,0,9.92,5.97,15.79,7.82c5.86,1.86,10.68-0.81,9.17-2.38
		c-1.51-1.57-14.49-10.74-14.49-10.74L1078.16,678.74z"/>
	<path class="st65" d="M1010.4,589.38c3.2,0,38.46,1.97,38.46,1.97s45.12,3.45,51.03,9.86c5.92,6.41-15.29,88.26-15.29,88.26
		l-9.86-2.47l3.18-67.41c-10.38-0.5-73.34,7.65-73.69-1.75C1004.14,615.41,1010.4,589.38,1010.4,589.38z"/>
	<path class="st66" d="M1033.96,496.7c-29.87,14.2-40.35,89.01-29.72,121.14l34.23-27.07c-7.63-35.86,11.45-59.36,7.58-77.28
		C1043.73,502.74,1036.2,496.81,1033.96,496.7z"/>
	<path class="st11" d="M1061.79,500.62c-7.15,7.27-12.45,7.27-16.4,0.37c-3.38-5.91-4.04-12.82-3.24-19.17
		c-1.91-0.65-3.16-2.98-2.92-5.77c0.28-3.28,2.53-5.95,5.02-5.95c0.55,0,1.07,0.13,1.54,0.37c1.54-2.66,3.39-4.9,5.24-7.35
		c3.45-4.56,19.25-0.49,22.83,6.18C1078.33,477.64,1066.89,495.44,1061.79,500.62z"/>
	<path class="st13" d="M1054.02,468.26c-0.92,0.18-5.61,9.74-6.6,9.12c-0.99-0.62-1.63-6.9-1.63-6.9s-0.01-0.36-1.54-0.37
		c-1.53-0.01-2.62,1.03-2.62,1.03s1.29-10.98,3.01-12.46c1.73-1.48,6.84-1.36,6.84-1.36s1.6-1.73,5.12-2.59
		c3.51-0.86,9.68,2.65,18.24,6.84c8.48,4.15,10.7,12.74-0.01,13.39C1064.99,475.56,1054.02,468.26,1054.02,468.26z"/>
	
		<rect x="1069.27" y="569.54" transform="matrix(0.1091 -0.994 0.994 0.1091 364.3681 1592.251)" class="st67" width="2.47" height="46.6"/>
	<polygon class="st68" points="1116.63,554.63 1116.46,551.08 1108.68,552.09 1094.16,594.6 1099.98,596.2 1102.98,595.75 	"/>
	
		<rect x="1076.13" y="570.3" transform="matrix(0.1091 -0.994 0.994 0.1091 369.7531 1599.7559)" class="st69" width="2.47" height="46.6"/>
	
		<rect x="1086.42" y="572.18" transform="matrix(0.3389 -0.9408 0.9408 0.3389 194.1988 1423.1769)" class="st42" width="46.6" height="2.47"/>
	<path class="st11" d="M1064.68,584.6c0.97-0.02,4.21,0.1,5.07,0.04c0.86-0.06,8.69-0.43,9.67-0.12c0.5,0.16,3.14,1.67,5.43,3.54
		c1.26,1.03,3.93,4.15,4.25,4.44c0.64,0.59-1.27,1.11-2.19,0.67c-1.07-0.51-3.37-3.36-3.37-3.36c-0.43-0.14-0.84-0.29-1.22-0.43
		c0.27,0.37,0.48,0.67,0.55,0.84c0.28,0.69,0.34,2.48-0.02,2.59c-0.35,0.11-0.93,0.29-1.96-0.2c-0.57-0.27-1.48-1.31-2.16-2.24
		c-1.61,1.98-7.37,2.12-9.55,1.48c-2.21-0.64-3.51-2.04-3.51-2.04L1064.68,584.6z"/>
	<path class="st70" d="M1021.24,555.41l48.51,29.24l-4.07,5.18l-57.31-26.28c-6.77-3.11,7.88-49.42,11.25-57.74
		c2.78-6.86,9.96-8.39,14.35-6.6C1044.94,503.66,1022.05,550.78,1021.24,555.41z"/>
	<g>
		<path class="st11" d="M411.47,479.04c-0.16-0.07-1.58-9.38-0.69-11.08c0.89-1.69,4.63-5.12,4.71-3.82
			c0.07,1.3-1.55,4.09-1.55,4.09l0.28,2.31c0,0,4.3-8.63,5.67-9.83c1.37-1.21,2.17-0.65,2.17-0.65s1.5-1.9,2.35-1.51
			c0.86,0.39,0.77,1.5,0.71,1.86c-0.06,0.36-0.07,0.46-0.07,0.46s0.43-0.16,0.85,0.6c0.42,0.76,0.27,1.86,0.27,1.86
			s0.61,0.1,0.73,1.11c0.13,1.01-0.07,1.51-0.13,1.68c-0.06,0.17-3.05,6.69-3.12,7.01c-0.07,0.32,0,1.72-1.4,4
			c-1.4,2.28-5.17,4.97-5.17,4.97C411.21,480.7,411.63,479.11,411.47,479.04z"/>
		<path class="st71" d="M368.03,479.04c1.27,0.53,28.01,29.17,28.75,29.38c0.74,0.21,13.84-29.59,14.69-29.38
			c0.85,0.21,6.45,2.22,6.45,2.22s-14.02,39.16-15.82,41.69c-1.8,2.54-28.89-14.37-36.61-24.41c-7.72-10.04-7.64-17.56-4.86-19.66
			C363.42,476.79,368.03,479.04,368.03,479.04z"/>
		<path class="st11" d="M426.97,508.43c1.16,0.31,2.51,0.59,3.6,0.59c2.43,0,4.76-1.16,4.02,0.21c-0.41,0.76-3.57,2.18-6.68,3.54
			L426.97,508.43z"/>
		<path class="st72" d="M427.29,509.85c0,0,20.44-0.94,24.84,16.98l27.36-32.7c0,0-11.64-15.09-26.1-11.01L427.29,509.85z"/>
		<path class="st73" d="M364.3,554.12c-4,2.62-10.57,5.14-15.79,26.08c-5.22,20.94,3.29,79.7,3.29,79.7s-7.27,23.53-10.28,43.2
			c-3.01,19.67-6.57,46.21-6.57,46.21l9.33,2.76l26.36-87.29c9.3-30.8,8.82-102.19,5.84-103.86L364.3,554.12z"/>
		<path class="st74" d="M363.37,750.34l-2.42,4l-0.93,4.31c0,0,4.51,6.32,9.13,5.87c4.62-0.45,5.45-3.21,5.45-3.21l-4.1-5.8
			L363.37,750.34z"/>
		<path class="st33" d="M360.02,758.64c-1.37,0.29-2.38,7.27-1.06,8.74c2.4,0,4.79,0,7.19,0c0.47,0,0.94,0,1.41,0
			c4.13,0,13.98,0.23,17.12,0c3.19-0.23,8.09-2.53,2.78-3.79c-5.31-1.26-14.91-5.18-14.91-5.18
			C371.34,763.44,362.42,760.89,360.02,758.64z"/>
		<path class="st75" d="M348.74,551.56c-3.38,3.38-9.3,7.19-10.15,28.75c-0.85,21.56,19.45,77.37,19.45,77.37
			s-2.33,24.52-1.27,44.39c1.06,19.87,3.69,53.8,3.69,53.8l10.43,0.22l6.59-97.46c0,0,3.8-46.93,4.23-65.53
			c0.42-18.6-6.98-38.68-6.98-38.68L348.74,551.56z"/>
		<path class="st13" d="M340.94,434.97c-0.38,1.66,1.79,8.66,3.63,12.66c1.84,4,6.99,6.16,6.94,5.58
			c-0.04-0.59-1.46-14.85-1.46-14.85L340.94,434.97z"/>
		<path class="st15" d="M361.25,452.19c0,0,1.92,1.97,3.94,10.46c1.28,5.38,4.03,10.45,8.58,14.26c0,0,1.07,8.03-22.52-4.51
			l-0.43-24.53L361.25,452.19z"/>
		<path class="st11" d="M376.64,453.62c-1.65,9.82-5.89,12.79-12.91,9.47c-6.01-2.84-10.41-7.99-13.32-13.52
			c-1.89,0.55-4.2-0.62-5.57-2.98c-1.62-2.78-1.31-6.17,0.69-7.57c0.44-0.31,0.93-0.5,1.44-0.57c-0.25-2.99-0.03-5.82,0.08-8.81
			c0.21-5.58,15.13-11.17,21.73-7.83C377.01,425.97,377.82,446.62,376.64,453.62z"/>
		<path class="st76" d="M352.31,432.08c-0.64,0.67,0.96,10.93-0.17,10.99c-1.13,0.06-5.16-4.61-5.16-4.61s-0.21-0.28-1.44,0.57
			c-1.23,0.85-1.52,2.29-1.52,2.29s-5.11-9.5-4.56-11.65c0.55-2.15,4.71-4.91,4.71-4.91s0.32-2.28,2.64-4.93
			c2.33-2.66,9.23-3.3,18.43-4.74c9.11-1.43,15.69,4.2,7.49,10.72C365.17,431.78,352.31,432.08,352.31,432.08z"/>
		<path class="st77" d="M358.94,468.28c6.02,1.89,5.62,8.35,14.77,8.55c0,0,10.25,14.83,12.79,20.01
			c4.33,8.83-4.27,14.43-5.26,19.93c-0.99,5.51-1.37,56.57,0.14,59.73c1.52,3.15-44.37-4.71-41.27-10.66
			c3.1-5.96,5.19-30.46,6.21-51.61c1.02-21.15-1.82-29.15-0.65-36.99C346.86,469.41,351.62,465.98,358.94,468.28z"/>
		<path class="st76" d="M357.44,424.43c-1.36,1.6-3.72,6.81-0.4,19.98c3.33,13.17,0.57,22.23-6.68,30.22
			c-7.25,7.99-2.27,33.63-3.82,27.94c-1.55-5.69-13.99-14.83-9.84-28.8c4.15-13.97,6.27-21.06,4.23-24.42
			c-2.05-3.36-5.98-13.56-3.29-19.3c2.68-5.74,5.53-5.98,5.73-6.94c0.2-0.95,2.27-4.47,5.85-6.2c3.57-1.73,16.31-5.53,21.11-2.68
			c4.8,2.85,5.37,5.79,1.02,9.63C366.99,427.7,357.44,424.43,357.44,424.43z"/>
		<path class="st74" d="M335.34,748.55l-1.98,3.94c0,0,2.78,7.25,7.36,7.98c4.59,0.72,6.08-1.74,6.08-1.74l-2.52-6.65L335.34,748.55
			z"/>
		<path class="st33" d="M333.36,752.49c-1.4-0.06-4.13,6.44-3.22,8.19c2.32,0.6,4.64,1.2,6.96,1.8c0.45,0.12,0.91,0.24,1.36,0.35
			c4,1.04,13.48,3.73,16.58,4.3c3.14,0.58,8.47-0.42,3.64-2.97c-4.82-2.56-13.14-8.75-13.14-8.75
			C343.12,759.98,335.13,755.27,333.36,752.49z"/>
		<path class="st78" d="M364.73,478.89c0,0-4.35-9.17-11.53-4.53c-7.18,4.64,18.23,64.09,22.73,64.14
			c4.5,0.05,46.5-21.98,46.5-21.98l-2.96-5.92c0,0-40.16,15.43-40.59,13.11C378.47,521.38,364.73,478.89,364.73,478.89z"/>
		<path class="st72" d="M427.29,509.85c0,0-16.01-11.83-22.54-8.92l26.52-25.79c0,0,14.47-3.47,22.13,7.98L427.29,509.85z"/>
		<path class="st79" d="M453.39,483.12c0,0,14.43-7.42,23.1,4.92l-23.1,25.52c0,0-14.83-9.75-25.28-4.56L453.39,483.12z"/>
		<path class="st80" d="M453.39,483.12c0,0,10.43-8.59,18.6-5.09l-22.02,23.85c0,0-11.41-2.42-21.86,7.12L453.39,483.12z"/>
		<path class="st81" d="M428.11,509c0,0-8.57-10.03-17.67-10.59l24.78-24.5c0,0,12.74-2.66,18.17,9.2L428.11,509z"/>
		<path class="st82" d="M426.38,486.91l0-0.62c0.03,0,0.06,0,0.09,0c8.09,0,12.09,6.55,12.13,6.61l-0.53,0.32
			c-0.04-0.06-3.87-6.31-11.6-6.31C426.44,486.91,426.41,486.91,426.38,486.91z"/>
		<path class="st82" d="M423.55,490.14l0-0.62c0.03,0,0.06,0,0.09,0c8.09,0,12.09,6.55,12.13,6.61l-0.53,0.32
			c-0.04-0.06-3.87-6.31-11.6-6.31C423.61,490.14,423.58,490.14,423.55,490.14z"/>
		<path class="st82" d="M432.62,499.37l-0.53,0.32c-0.04-0.06-3.87-6.31-11.6-6.31c-0.03,0-0.06,0-0.09,0l0-0.62
			C428.54,492.7,432.58,499.3,432.62,499.37z"/>
		<path class="st11" d="M419.48,510.6c0.85-4.49,5.05-12.72,5.39-10.68c0.42,2.54,0.07,6.74-0.03,7.45s0.49,1.46,3.4,2.47
			l-0.33,2.92c-2.52,1.1-4.25,2.07-5.81,3.07C422.07,515.86,419.39,511.04,419.48,510.6z"/>
	</g>
</g>
</svg>
