<?xml version="1.0" encoding="utf-8"?>
<!-- Generator: Adobe Illustrator 24.0.0, SVG Export Plug-In . SVG Version: 6.00 Build 0)  -->
<svg version="1.1" id="Layer_1" xmlns="http://www.w3.org/2000/svg" xmlns:xlink="http://www.w3.org/1999/xlink" x="0px" y="0px"
	 viewBox="0 0 1366 768" style="enable-background:new 0 0 1366 768;" xml:space="preserve">
<style type="text/css">
	.st0{fill-rule:evenodd;clip-rule:evenodd;fill:#2C93BF;}
	.st1{fill-rule:evenodd;clip-rule:evenodd;fill:#257A9E;}
	.st2{fill-rule:evenodd;clip-rule:evenodd;fill:#91573F;}
	.st3{fill-rule:evenodd;clip-rule:evenodd;fill:#455668;}
	.st4{fill-rule:evenodd;clip-rule:evenodd;fill:#DBDCD7;}
	.st5{opacity:0.5;fill-rule:evenodd;clip-rule:evenodd;fill:#636363;}
	.st6{fill-rule:evenodd;clip-rule:evenodd;fill:#73442F;}
	.st7{opacity:0.5;fill-rule:evenodd;clip-rule:evenodd;fill:#592B17;}
	.st8{opacity:0.5;fill-rule:evenodd;clip-rule:evenodd;fill:#8F8F8F;}
	.st9{fill-rule:evenodd;clip-rule:evenodd;fill:#CCCCCA;}
	.st10{fill-rule:evenodd;clip-rule:evenodd;fill:#9D9D9B;}
	.st11{opacity:0.5;fill-rule:evenodd;clip-rule:evenodd;fill:#8A8A8A;}
	.st12{fill-rule:evenodd;clip-rule:evenodd;fill:#A3A3A3;}
	.st13{fill-rule:evenodd;clip-rule:evenodd;fill:#5E5E5E;}
	.st14{fill-rule:evenodd;clip-rule:evenodd;fill:#2F3A47;}
	.st15{fill-rule:evenodd;clip-rule:evenodd;fill:#425263;}
	.st16{fill-rule:evenodd;clip-rule:evenodd;fill:#BDBDBD;}
	.st17{opacity:0.5;fill-rule:evenodd;clip-rule:evenodd;fill:#858585;}
	.st18{opacity:0.5;fill-rule:evenodd;clip-rule:evenodd;fill:#CCC5AE;}
	.st19{opacity:0.5;fill-rule:evenodd;clip-rule:evenodd;fill:#827B63;}
	.st20{fill-rule:evenodd;clip-rule:evenodd;fill:#A36246;}
	.st21{fill-rule:evenodd;clip-rule:evenodd;fill:#875039;}
</style>
<circle class="st0" cx="692.97" cy="381.03" r="377.03"/>
<path class="st1" d="M481.2,244.77l-14.66-16.72h-20.31v8.68h-25.09l-4.88-8.68h-20.31v21.62h0.65v15.38H395v16.08h0.95v20.98h0.65
	v183.54h-1.07v6.47h1.07v41.44l205.13,209.35c31.85,9.17,65.46,14.09,100.18,14.09C905.2,757,1070,588.81,1070,381.34
	c0-31.63-3.84-62.35-11.05-91.7l-60.35-61.59h-20.31v8.68H953.2l-4.89-8.68H928v16.72H745.86L697.19,209l-48.66,35.77H481.2z"/>
<g>
	<rect x="464.86" y="248.26" class="st2" width="461.82" height="276.85"/>
	<g>
		<g>
			<polygon class="st3" points="703.34,311.66 702.67,311.66 673.77,311.66 673.77,368.95 702.67,368.95 703.34,368.95 
				717.76,368.95 717.76,311.66 			"/>
			<path class="st4" d="M718.87,310.3c-15.4,0-30.8,0-46.21,0v60.02c15.4,0,30.81,0,46.21,0V310.3L718.87,310.3z M687.54,312.51
				v55.58h-12.48v-55.58H687.54L687.54,312.51z M689.57,368.1v-55.58h12.39v55.58H689.57L689.57,368.1z M703.99,368.1v-55.58h12.48
				v55.58H703.99z"/>
			<g>
				<rect x="673.95" y="339.54" class="st4" width="29.2" height="1.88"/>
				<rect x="673.86" y="325.56" class="st4" width="29.2" height="1.02"/>
				<rect x="673.77" y="354.03" class="st4" width="29.21" height="1.02"/>
				<rect x="688.37" y="339.54" class="st4" width="29.21" height="1.88"/>
				<rect x="688.28" y="325.56" class="st4" width="29.2" height="1.02"/>
				<rect x="688.19" y="354.03" class="st4" width="29.2" height="1.02"/>
			</g>
		</g>
		<rect x="669.65" y="369.28" class="st4" width="52.23" height="4.26"/>
		<rect x="669.65" y="373.54" class="st5" width="52.23" height="5.37"/>
	</g>
	<g>
		<g>
			<g>
				<path class="st6" d="M780.74,311.45h-6.26v8.48h6.26c1.07,0,1.94-0.87,1.94-1.94v-4.59
					C782.68,312.32,781.81,311.45,780.74,311.45z"/>
				<path class="st6" d="M780.74,330.62h-6.26v8.48h6.26c1.07,0,1.94-0.87,1.94-1.94v-4.59
					C782.68,331.49,781.81,330.62,780.74,330.62z"/>
				<path class="st6" d="M780.74,350.16h-6.26v8.48h6.26c1.07,0,1.94-0.87,1.94-1.94v-4.59
					C782.68,351.03,781.81,350.16,780.74,350.16z"/>
				<path class="st6" d="M780.74,369.33h-6.26v8.48h6.26c1.07,0,1.94-0.87,1.94-1.94v-4.59
					C782.68,370.2,781.81,369.33,780.74,369.33z"/>
				<path class="st6" d="M780.74,388.68h-6.26v8.48h6.26c1.07,0,1.94-0.87,1.94-1.94v-4.59
					C782.68,389.56,781.81,388.68,780.74,388.68z"/>
				<path class="st6" d="M780.74,407.85h-6.26v8.48h6.26c1.07,0,1.94-0.87,1.94-1.94v-4.59
					C782.68,408.73,781.81,407.85,780.74,407.85z"/>
				<path class="st6" d="M780.86,292.11h-6.38v8.48h6.38c1.07,0,1.94-0.87,1.94-1.94v-4.59
					C782.81,292.99,781.93,292.11,780.86,292.11z"/>
			</g>
			<g>
				<path class="st6" d="M790.86,301.98h-14.31c-1.07,0-1.94,0.87-1.94,1.94v4.59c0,1.07,0.87,1.94,1.94,1.94h14.31
					c1.07,0,1.94-0.87,1.94-1.94v-4.59C792.8,302.86,791.93,301.98,790.86,301.98z"/>
				<path class="st6" d="M790.86,320.91h-14.31c-1.07,0-1.94,0.87-1.94,1.94v4.59c0,1.07,0.87,1.94,1.94,1.94h14.31
					c1.07,0,1.94-0.87,1.94-1.94v-4.59C792.8,321.78,791.93,320.91,790.86,320.91z"/>
				<path class="st6" d="M790.73,340.69h-14.31c-1.07,0-1.94,0.87-1.94,1.94v4.59c0,1.07,0.87,1.94,1.94,1.94h14.31
					c1.07,0,1.94-0.87,1.94-1.94v-4.59C792.68,341.57,791.8,340.69,790.73,340.69z"/>
				<path class="st6" d="M790.73,359.62h-14.31c-1.07,0-1.94,0.87-1.94,1.94v4.59c0,1.07,0.87,1.94,1.94,1.94h14.31
					c1.07,0,1.94-0.87,1.94-1.94v-4.59C792.68,360.49,791.8,359.62,790.73,359.62z"/>
				<path class="st6" d="M790.73,379.22h-14.31c-1.07,0-1.94,0.87-1.94,1.94v4.59c0,1.07,0.87,1.94,1.94,1.94h14.31
					c1.07,0,1.94-0.87,1.94-1.94v-4.59C792.68,380.1,791.8,379.22,790.73,379.22z"/>
				<path class="st6" d="M790.73,398.14h-14.31c-1.07,0-1.94,0.87-1.94,1.94v4.59c0,1.07,0.87,1.94,1.94,1.94h14.31
					c1.07,0,1.94-0.87,1.94-1.94v-4.59C792.68,399.02,791.8,398.14,790.73,398.14z"/>
				<path class="st6" d="M790.86,282.36h-14.31c-1.07,0-1.94,0.88-1.94,1.94v4.59c0,1.07,0.87,1.94,1.94,1.94h14.31
					c1.07,0,1.94-0.87,1.94-1.94v-4.59C792.8,283.23,791.93,282.36,790.86,282.36z"/>
			</g>
		</g>
		<g>
			<g>
				<path class="st6" d="M780.74,512.89h-6.26v-8.48h6.26c1.07,0,1.94,0.87,1.94,1.94v4.59
					C782.68,512.01,781.81,512.89,780.74,512.89z"/>
				<path class="st6" d="M780.74,493.72h-6.26v-8.48h6.26c1.07,0,1.94,0.87,1.94,1.94v4.59
					C782.68,492.84,781.81,493.72,780.74,493.72z"/>
				<path class="st6" d="M780.74,474.18h-6.26v-8.48h6.26c1.07,0,1.94,0.87,1.94,1.94v4.59
					C782.68,473.3,781.81,474.18,780.74,474.18z"/>
				<path class="st6" d="M780.74,455.01h-6.26v-8.48h6.26c1.07,0,1.94,0.87,1.94,1.94v4.59
					C782.68,454.13,781.81,455.01,780.74,455.01z"/>
				<path class="st6" d="M780.74,435.65h-6.26v-8.48h6.26c1.07,0,1.94,0.87,1.94,1.94v4.59
					C782.68,434.78,781.81,435.65,780.74,435.65z"/>
				<path class="st6" d="M780.74,416.48h-6.26V408h6.26c1.07,0,1.94,0.87,1.94,1.94v4.59C782.68,415.61,781.81,416.48,780.74,416.48
					z"/>
			</g>
			<g>
				<path class="st6" d="M790.86,522.35h-14.31c-1.07,0-1.94-0.87-1.94-1.94v-4.59c0-1.07,0.87-1.94,1.94-1.94h14.31
					c1.07,0,1.94,0.87,1.94,1.94v4.59C792.8,521.47,791.93,522.35,790.86,522.35z"/>
				<path class="st6" d="M790.86,503.43h-14.31c-1.07,0-1.94-0.87-1.94-1.94v-4.59c0-1.07,0.87-1.94,1.94-1.94h14.31
					c1.07,0,1.94,0.87,1.94,1.94v4.59C792.8,502.55,791.93,503.43,790.86,503.43z"/>
				<path class="st6" d="M790.73,483.64h-14.31c-1.07,0-1.94-0.87-1.94-1.94v-4.59c0-1.07,0.87-1.94,1.94-1.94h14.31
					c1.07,0,1.94,0.87,1.94,1.94v4.59C792.68,482.77,791.8,483.64,790.73,483.64z"/>
				<path class="st6" d="M790.73,464.72h-14.31c-1.07,0-1.94-0.87-1.94-1.94v-4.59c0-1.07,0.87-1.94,1.94-1.94h14.31
					c1.07,0,1.94,0.87,1.94,1.94v4.59C792.68,463.84,791.8,464.72,790.73,464.72z"/>
				<path class="st6" d="M790.73,445.11h-14.31c-1.07,0-1.94-0.87-1.94-1.94v-4.59c0-1.07,0.87-1.94,1.94-1.94h14.31
					c1.07,0,1.94,0.87,1.94,1.94v4.59C792.68,444.24,791.8,445.11,790.73,445.11z"/>
				<path class="st6" d="M790.73,426.19h-14.31c-1.07,0-1.94-0.87-1.94-1.94v-4.59c0-1.07,0.87-1.94,1.94-1.94h14.31
					c1.07,0,1.94,0.87,1.94,1.94v4.59C792.68,425.32,791.8,426.19,790.73,426.19z"/>
			</g>
		</g>
	</g>
	<rect x="613.52" y="299.4" class="st7" width="164.48" height="15.4"/>
	<path class="st8" d="M749.92,308.18v74.52h2.12v3.45H736.7v-3.45h2.12v-74.52h-2.12v-3.1h15.34v3.1H749.92L749.92,308.18z
		 M651.08,386.16h15.35v-3.45h-2.12v-74.52h2.12v-3.1h-15.35v3.1h2.12v74.52h-2.12V386.16L651.08,386.16z M624.47,386.16h15.34
		v-3.45h-2.12v-74.52h2.12v-3.1h-15.34v3.1h2.12v74.52h-2.12V386.16L624.47,386.16z M763.31,386.16h15.35v-3.45h-2.12v-74.52h2.12
		v-3.1h-15.35v3.1h2.12v74.52h-2.12V386.16z"/>
	<g>
		<g>
			<g>
				<path class="st6" d="M612.4,311.45h6.26v8.48h-6.26c-1.07,0-1.94-0.87-1.94-1.94v-4.59
					C610.45,312.32,611.32,311.45,612.4,311.45z"/>
				<path class="st6" d="M612.4,330.62h6.26v8.48h-6.26c-1.07,0-1.94-0.87-1.94-1.94v-4.59
					C610.45,331.49,611.32,330.62,612.4,330.62z"/>
				<path class="st6" d="M612.4,350.16h6.26v8.48h-6.26c-1.07,0-1.94-0.87-1.94-1.94v-4.59
					C610.45,351.03,611.32,350.16,612.4,350.16z"/>
				<path class="st6" d="M612.4,369.33h6.26v8.48h-6.26c-1.07,0-1.94-0.87-1.94-1.94v-4.59C610.45,370.2,611.32,369.33,612.4,369.33
					z"/>
				<path class="st6" d="M612.4,388.68h6.26v8.48h-6.26c-1.07,0-1.94-0.87-1.94-1.94v-4.59
					C610.45,389.56,611.32,388.68,612.4,388.68z"/>
				<path class="st6" d="M612.4,407.85h6.26v8.48h-6.26c-1.07,0-1.94-0.87-1.94-1.94v-4.59
					C610.45,408.73,611.32,407.85,612.4,407.85z"/>
				<path class="st6" d="M612.27,292.11h6.38v8.48h-6.38c-1.07,0-1.94-0.87-1.94-1.94v-4.59
					C610.33,292.99,611.2,292.11,612.27,292.11z"/>
			</g>
			<g>
				<path class="st6" d="M602.28,301.98h14.31c1.07,0,1.94,0.87,1.94,1.94v4.59c0,1.07-0.87,1.94-1.94,1.94h-14.31
					c-1.07,0-1.94-0.87-1.94-1.94v-4.59C600.33,302.86,601.21,301.98,602.28,301.98z"/>
				<path class="st6" d="M602.28,320.91h14.31c1.07,0,1.94,0.87,1.94,1.94v4.59c0,1.07-0.87,1.94-1.94,1.94h-14.31
					c-1.07,0-1.94-0.87-1.94-1.94v-4.59C600.33,321.78,601.21,320.91,602.28,320.91z"/>
				<path class="st6" d="M602.4,340.69h14.31c1.07,0,1.94,0.87,1.94,1.94v4.59c0,1.07-0.88,1.94-1.94,1.94H602.4
					c-1.07,0-1.94-0.87-1.94-1.94v-4.59C600.46,341.57,601.33,340.69,602.4,340.69z"/>
				<path class="st6" d="M602.4,359.62h14.31c1.07,0,1.94,0.87,1.94,1.94v4.59c0,1.07-0.88,1.94-1.94,1.94H602.4
					c-1.07,0-1.94-0.87-1.94-1.94v-4.59C600.46,360.49,601.33,359.62,602.4,359.62z"/>
				<path class="st6" d="M602.4,379.22h14.31c1.07,0,1.94,0.87,1.94,1.94v4.59c0,1.07-0.88,1.94-1.94,1.94H602.4
					c-1.07,0-1.94-0.87-1.94-1.94v-4.59C600.46,380.1,601.33,379.22,602.4,379.22z"/>
				<path class="st6" d="M602.4,398.14h14.31c1.07,0,1.94,0.87,1.94,1.94v4.59c0,1.07-0.88,1.94-1.94,1.94H602.4
					c-1.07,0-1.94-0.87-1.94-1.94v-4.59C600.46,399.02,601.33,398.14,602.4,398.14z"/>
				<path class="st6" d="M602.28,282.36h14.31c1.07,0,1.94,0.88,1.94,1.94v4.59c0,1.07-0.87,1.94-1.94,1.94h-14.31
					c-1.07,0-1.94-0.87-1.94-1.94v-4.59C600.33,283.23,601.21,282.36,602.28,282.36z"/>
			</g>
		</g>
		<g>
			<g>
				<path class="st6" d="M612.4,512.89h6.26v-8.48h-6.26c-1.07,0-1.94,0.87-1.94,1.94v4.59
					C610.45,512.01,611.32,512.89,612.4,512.89z"/>
				<path class="st6" d="M612.4,493.72h6.26v-8.48h-6.26c-1.07,0-1.94,0.87-1.94,1.94v4.59
					C610.45,492.84,611.32,493.72,612.4,493.72z"/>
				<path class="st6" d="M612.4,474.18h6.26v-8.48h-6.26c-1.07,0-1.94,0.87-1.94,1.94v4.59C610.45,473.3,611.32,474.18,612.4,474.18
					z"/>
				<path class="st6" d="M612.4,455.01h6.26v-8.48h-6.26c-1.07,0-1.94,0.87-1.94,1.94v4.59
					C610.45,454.13,611.32,455.01,612.4,455.01z"/>
				<path class="st6" d="M612.4,435.65h6.26v-8.48h-6.26c-1.07,0-1.94,0.87-1.94,1.94v4.59
					C610.45,434.78,611.32,435.65,612.4,435.65z"/>
				<path class="st6" d="M612.4,416.48h6.26V408h-6.26c-1.07,0-1.94,0.87-1.94,1.94v4.59C610.45,415.61,611.32,416.48,612.4,416.48z
					"/>
			</g>
			<g>
				<path class="st6" d="M602.28,522.35h14.31c1.07,0,1.94-0.87,1.94-1.94v-4.59c0-1.07-0.87-1.94-1.94-1.94h-14.31
					c-1.07,0-1.94,0.87-1.94,1.94v4.59C600.33,521.47,601.21,522.35,602.28,522.35z"/>
				<path class="st6" d="M602.28,503.43h14.31c1.07,0,1.94-0.87,1.94-1.94v-4.59c0-1.07-0.87-1.94-1.94-1.94h-14.31
					c-1.07,0-1.94,0.87-1.94,1.94v4.59C600.33,502.55,601.21,503.43,602.28,503.43z"/>
				<path class="st6" d="M602.4,483.64h14.31c1.07,0,1.94-0.87,1.94-1.94v-4.59c0-1.07-0.88-1.94-1.94-1.94H602.4
					c-1.07,0-1.94,0.87-1.94,1.94v4.59C600.46,482.77,601.33,483.64,602.4,483.64z"/>
				<path class="st6" d="M602.4,464.72h14.31c1.07,0,1.94-0.87,1.94-1.94v-4.59c0-1.07-0.88-1.94-1.94-1.94H602.4
					c-1.07,0-1.94,0.87-1.94,1.94v4.59C600.46,463.84,601.33,464.72,602.4,464.72z"/>
				<path class="st6" d="M602.4,445.11h14.31c1.07,0,1.94-0.87,1.94-1.94v-4.59c0-1.07-0.88-1.94-1.94-1.94H602.4
					c-1.07,0-1.94,0.87-1.94,1.94v4.59C600.46,444.24,601.33,445.11,602.4,445.11z"/>
				<path class="st6" d="M602.4,426.19h14.31c1.07,0,1.94-0.87,1.94-1.94v-4.59c0-1.07-0.88-1.94-1.94-1.94H602.4
					c-1.07,0-1.94,0.87-1.94,1.94v4.59C600.46,425.32,601.33,426.19,602.4,426.19z"/>
			</g>
		</g>
	</g>
	<g>
		<g>
			<g>
				<path class="st6" d="M917.62,311.45h6.26v8.48h-6.26c-1.07,0-1.94-0.87-1.94-1.94v-4.59
					C915.68,312.32,916.55,311.45,917.62,311.45z"/>
				<path class="st6" d="M917.62,330.62h6.26v8.48h-6.26c-1.07,0-1.94-0.87-1.94-1.94v-4.59
					C915.68,331.49,916.55,330.62,917.62,330.62z"/>
				<path class="st6" d="M917.62,350.16h6.26v8.48h-6.26c-1.07,0-1.94-0.87-1.94-1.94v-4.59
					C915.68,351.03,916.55,350.16,917.62,350.16z"/>
				<path class="st6" d="M917.62,369.33h6.26v8.48h-6.26c-1.07,0-1.94-0.87-1.94-1.94v-4.59
					C915.68,370.2,916.55,369.33,917.62,369.33z"/>
				<path class="st6" d="M917.62,388.68h6.26v8.48h-6.26c-1.07,0-1.94-0.87-1.94-1.94v-4.59
					C915.68,389.56,916.55,388.68,917.62,388.68z"/>
				<path class="st6" d="M917.62,407.85h6.26v8.48h-6.26c-1.07,0-1.94-0.87-1.94-1.94v-4.59
					C915.68,408.73,916.55,407.85,917.62,407.85z"/>
				<path class="st6" d="M917.49,292.11h6.38v8.48h-6.38c-1.07,0-1.94-0.87-1.94-1.94v-4.59
					C915.55,292.99,916.43,292.11,917.49,292.11z"/>
			</g>
			<g>
				<path class="st6" d="M907.5,301.98h14.31c1.07,0,1.94,0.87,1.94,1.94v4.59c0,1.07-0.87,1.94-1.94,1.94H907.5
					c-1.07,0-1.94-0.87-1.94-1.94v-4.59C905.56,302.86,906.43,301.98,907.5,301.98z"/>
				<path class="st6" d="M907.5,320.91h14.31c1.07,0,1.94,0.87,1.94,1.94v4.59c0,1.07-0.87,1.94-1.94,1.94H907.5
					c-1.07,0-1.94-0.87-1.94-1.94v-4.59C905.56,321.78,906.43,320.91,907.5,320.91z"/>
				<path class="st6" d="M907.63,340.69h14.31c1.07,0,1.94,0.87,1.94,1.94v4.59c0,1.07-0.87,1.94-1.94,1.94h-14.31
					c-1.07,0-1.94-0.87-1.94-1.94v-4.59C905.68,341.57,906.56,340.69,907.63,340.69z"/>
				<path class="st6" d="M907.63,359.62h14.31c1.07,0,1.94,0.87,1.94,1.94v4.59c0,1.07-0.87,1.94-1.94,1.94h-14.31
					c-1.07,0-1.94-0.87-1.94-1.94v-4.59C905.68,360.49,906.56,359.62,907.63,359.62z"/>
				<path class="st6" d="M907.63,379.22h14.31c1.07,0,1.94,0.87,1.94,1.94v4.59c0,1.07-0.87,1.94-1.94,1.94h-14.31
					c-1.07,0-1.94-0.87-1.94-1.94v-4.59C905.68,380.1,906.56,379.22,907.63,379.22z"/>
				<path class="st6" d="M907.63,398.14h14.31c1.07,0,1.94,0.87,1.94,1.94v4.59c0,1.07-0.87,1.94-1.94,1.94h-14.31
					c-1.07,0-1.94-0.87-1.94-1.94v-4.59C905.68,399.02,906.56,398.14,907.63,398.14z"/>
				<path class="st6" d="M907.5,282.36h14.31c1.07,0,1.94,0.88,1.94,1.94v4.59c0,1.07-0.87,1.94-1.94,1.94H907.5
					c-1.07,0-1.94-0.87-1.94-1.94v-4.59C905.56,283.23,906.43,282.36,907.5,282.36z"/>
			</g>
		</g>
		<g>
			<g>
				<path class="st6" d="M917.62,512.89h6.26v-8.48h-6.26c-1.07,0-1.94,0.87-1.94,1.94v4.59
					C915.68,512.01,916.55,512.89,917.62,512.89z"/>
				<path class="st6" d="M917.62,493.72h6.26v-8.48h-6.26c-1.07,0-1.94,0.87-1.94,1.94v4.59
					C915.68,492.84,916.55,493.72,917.62,493.72z"/>
				<path class="st6" d="M917.62,474.18h6.26v-8.48h-6.26c-1.07,0-1.94,0.87-1.94,1.94v4.59
					C915.68,473.3,916.55,474.18,917.62,474.18z"/>
				<path class="st6" d="M917.62,455.01h6.26v-8.48h-6.26c-1.07,0-1.94,0.87-1.94,1.94v4.59
					C915.68,454.13,916.55,455.01,917.62,455.01z"/>
				<path class="st6" d="M917.62,435.65h6.26v-8.48h-6.26c-1.07,0-1.94,0.87-1.94,1.94v4.59
					C915.68,434.78,916.55,435.65,917.62,435.65z"/>
				<path class="st6" d="M917.62,416.48h6.26V408h-6.26c-1.07,0-1.94,0.87-1.94,1.94v4.59
					C915.68,415.61,916.55,416.48,917.62,416.48z"/>
			</g>
			<g>
				<path class="st6" d="M907.5,522.35h14.31c1.07,0,1.94-0.87,1.94-1.94v-4.59c0-1.07-0.87-1.94-1.94-1.94H907.5
					c-1.07,0-1.94,0.87-1.94,1.94v4.59C905.56,521.47,906.43,522.35,907.5,522.35z"/>
				<path class="st6" d="M907.5,503.43h14.31c1.07,0,1.94-0.87,1.94-1.94v-4.59c0-1.07-0.87-1.94-1.94-1.94H907.5
					c-1.07,0-1.94,0.87-1.94,1.94v4.59C905.56,502.55,906.43,503.43,907.5,503.43z"/>
				<path class="st6" d="M907.63,483.64h14.31c1.07,0,1.94-0.87,1.94-1.94v-4.59c0-1.07-0.87-1.94-1.94-1.94h-14.31
					c-1.07,0-1.94,0.87-1.94,1.94v4.59C905.68,482.77,906.56,483.64,907.63,483.64z"/>
				<path class="st6" d="M907.63,464.72h14.31c1.07,0,1.94-0.87,1.94-1.94v-4.59c0-1.07-0.87-1.94-1.94-1.94h-14.31
					c-1.07,0-1.94,0.87-1.94,1.94v4.59C905.68,463.84,906.56,464.72,907.63,464.72z"/>
				<path class="st6" d="M907.63,445.11h14.31c1.07,0,1.94-0.87,1.94-1.94v-4.59c0-1.07-0.87-1.94-1.94-1.94h-14.31
					c-1.07,0-1.94,0.87-1.94,1.94v4.59C905.68,444.24,906.56,445.11,907.63,445.11z"/>
				<path class="st6" d="M907.63,426.19h14.31c1.07,0,1.94-0.87,1.94-1.94v-4.59c0-1.07-0.87-1.94-1.94-1.94h-14.31
					c-1.07,0-1.94,0.87-1.94,1.94v4.59C905.68,425.32,906.56,426.19,907.63,426.19z"/>
			</g>
		</g>
	</g>
	<g>
		<g>
			<g>
				<path class="st6" d="M475.74,311.45h-6.26v8.48h6.26c1.07,0,1.94-0.87,1.94-1.94v-4.59
					C477.68,312.32,476.81,311.45,475.74,311.45z"/>
				<path class="st6" d="M475.74,330.62h-6.26v8.48h6.26c1.07,0,1.94-0.87,1.94-1.94v-4.59
					C477.68,331.49,476.81,330.62,475.74,330.62z"/>
				<path class="st6" d="M475.74,350.16h-6.26v8.48h6.26c1.07,0,1.94-0.87,1.94-1.94v-4.59
					C477.68,351.03,476.81,350.16,475.74,350.16z"/>
				<path class="st6" d="M475.74,369.33h-6.26v8.48h6.26c1.07,0,1.94-0.87,1.94-1.94v-4.59
					C477.68,370.2,476.81,369.33,475.74,369.33z"/>
				<path class="st6" d="M475.74,388.68h-6.26v8.48h6.26c1.07,0,1.94-0.87,1.94-1.94v-4.59
					C477.68,389.56,476.81,388.68,475.74,388.68z"/>
				<path class="st6" d="M475.74,407.85h-6.26v8.48h6.26c1.07,0,1.94-0.87,1.94-1.94v-4.59
					C477.68,408.73,476.81,407.85,475.74,407.85z"/>
				<path class="st6" d="M475.87,292.11h-6.38v8.48h6.38c1.07,0,1.94-0.87,1.94-1.94v-4.59
					C477.81,292.99,476.93,292.11,475.87,292.11z"/>
			</g>
			<g>
				<path class="st6" d="M485.86,301.98h-14.31c-1.07,0-1.94,0.87-1.94,1.94v4.59c0,1.07,0.87,1.94,1.94,1.94h14.31
					c1.07,0,1.94-0.87,1.94-1.94v-4.59C487.8,302.86,486.93,301.98,485.86,301.98z"/>
				<path class="st6" d="M485.86,320.91h-14.31c-1.07,0-1.94,0.87-1.94,1.94v4.59c0,1.07,0.87,1.94,1.94,1.94h14.31
					c1.07,0,1.94-0.87,1.94-1.94v-4.59C487.8,321.78,486.93,320.91,485.86,320.91z"/>
				<path class="st6" d="M485.74,340.69h-14.31c-1.07,0-1.94,0.87-1.94,1.94v4.59c0,1.07,0.87,1.94,1.94,1.94h14.31
					c1.07,0,1.94-0.87,1.94-1.94v-4.59C487.68,341.57,486.8,340.69,485.74,340.69z"/>
				<path class="st6" d="M485.74,359.62h-14.31c-1.07,0-1.94,0.87-1.94,1.94v4.59c0,1.07,0.87,1.94,1.94,1.94h14.31
					c1.07,0,1.94-0.87,1.94-1.94v-4.59C487.68,360.49,486.8,359.62,485.74,359.62z"/>
				<path class="st6" d="M485.74,379.22h-14.31c-1.07,0-1.94,0.87-1.94,1.94v4.59c0,1.07,0.87,1.94,1.94,1.94h14.31
					c1.07,0,1.94-0.87,1.94-1.94v-4.59C487.68,380.1,486.8,379.22,485.74,379.22z"/>
				<path class="st6" d="M485.74,398.14h-14.31c-1.07,0-1.94,0.87-1.94,1.94v4.59c0,1.07,0.87,1.94,1.94,1.94h14.31
					c1.07,0,1.94-0.87,1.94-1.94v-4.59C487.68,399.02,486.8,398.14,485.74,398.14z"/>
				<path class="st6" d="M485.86,282.36h-14.31c-1.07,0-1.94,0.88-1.94,1.94v4.59c0,1.07,0.87,1.94,1.94,1.94h14.31
					c1.07,0,1.94-0.87,1.94-1.94v-4.59C487.8,283.23,486.93,282.36,485.86,282.36z"/>
			</g>
		</g>
		<g>
			<g>
				<path class="st6" d="M475.74,512.89h-6.26v-8.48h6.26c1.07,0,1.94,0.87,1.94,1.94v4.59
					C477.68,512.01,476.81,512.89,475.74,512.89z"/>
				<path class="st6" d="M475.74,493.72h-6.26v-8.48h6.26c1.07,0,1.94,0.87,1.94,1.94v4.59
					C477.68,492.84,476.81,493.72,475.74,493.72z"/>
				<path class="st6" d="M475.74,474.18h-6.26v-8.48h6.26c1.07,0,1.94,0.87,1.94,1.94v4.59
					C477.68,473.3,476.81,474.18,475.74,474.18z"/>
				<path class="st6" d="M475.74,455.01h-6.26v-8.48h6.26c1.07,0,1.94,0.87,1.94,1.94v4.59
					C477.68,454.13,476.81,455.01,475.74,455.01z"/>
				<path class="st6" d="M475.74,435.65h-6.26v-8.48h6.26c1.07,0,1.94,0.87,1.94,1.94v4.59
					C477.68,434.78,476.81,435.65,475.74,435.65z"/>
				<path class="st6" d="M475.74,416.48h-6.26V408h6.26c1.07,0,1.94,0.87,1.94,1.94v4.59C477.68,415.61,476.81,416.48,475.74,416.48
					z"/>
			</g>
			<g>
				<path class="st6" d="M485.86,522.35h-14.31c-1.07,0-1.94-0.87-1.94-1.94v-4.59c0-1.07,0.87-1.94,1.94-1.94h14.31
					c1.07,0,1.94,0.87,1.94,1.94v4.59C487.8,521.47,486.93,522.35,485.86,522.35z"/>
				<path class="st6" d="M485.86,503.43h-14.31c-1.07,0-1.94-0.87-1.94-1.94v-4.59c0-1.07,0.87-1.94,1.94-1.94h14.31
					c1.07,0,1.94,0.87,1.94,1.94v4.59C487.8,502.55,486.93,503.43,485.86,503.43z"/>
				<path class="st6" d="M485.74,483.64h-14.31c-1.07,0-1.94-0.87-1.94-1.94v-4.59c0-1.07,0.87-1.94,1.94-1.94h14.31
					c1.07,0,1.94,0.87,1.94,1.94v4.59C487.68,482.77,486.8,483.64,485.74,483.64z"/>
				<path class="st6" d="M485.74,464.72h-14.31c-1.07,0-1.94-0.87-1.94-1.94v-4.59c0-1.07,0.87-1.94,1.94-1.94h14.31
					c1.07,0,1.94,0.87,1.94,1.94v4.59C487.68,463.84,486.8,464.72,485.74,464.72z"/>
				<path class="st6" d="M485.74,445.11h-14.31c-1.07,0-1.94-0.87-1.94-1.94v-4.59c0-1.07,0.87-1.94,1.94-1.94h14.31
					c1.07,0,1.94,0.87,1.94,1.94v4.59C487.68,444.24,486.8,445.11,485.74,445.11z"/>
				<path class="st6" d="M485.74,426.19h-14.31c-1.07,0-1.94-0.87-1.94-1.94v-4.59c0-1.07,0.87-1.94,1.94-1.94h14.31
					c1.07,0,1.94,0.87,1.94,1.94v4.59C487.68,425.32,486.8,426.19,485.74,426.19z"/>
			</g>
		</g>
	</g>
	<rect x="464.86" y="481.97" class="st9" width="461.82" height="43.15"/>
	<rect x="464.86" y="478.03" class="st9" width="461.82" height="7.16"/>
	<g>
		<path class="st10" d="M605.96,512.89h6.26v-8.48h-6.26c-1.07,0-1.95,0.87-1.95,1.94v4.59
			C604.01,512.01,604.88,512.89,605.96,512.89z"/>
		<path class="st10" d="M605.96,493.72h6.26v-8.48h-6.26c-1.07,0-1.95,0.87-1.95,1.94v4.59
			C604.01,492.84,604.88,493.72,605.96,493.72z"/>
		<path class="st10" d="M595.84,522.35h14.31c1.07,0,1.95-0.87,1.95-1.94v-4.59c0-1.07-0.87-1.94-1.95-1.94h-14.31
			c-1.07,0-1.94,0.87-1.94,1.94v4.59C593.89,521.47,594.77,522.35,595.84,522.35z"/>
		<path class="st10" d="M595.84,503.43h14.31c1.07,0,1.95-0.87,1.95-1.94v-4.59c0-1.07-0.87-1.94-1.95-1.94h-14.31
			c-1.07,0-1.94,0.87-1.94,1.94v4.59C593.89,502.55,594.77,503.43,595.84,503.43z"/>
	</g>
	<g>
		<path class="st10" d="M785.57,512.89h-6.26v-8.48h6.26c1.07,0,1.94,0.87,1.94,1.94v4.59
			C787.51,512.01,786.64,512.89,785.57,512.89z"/>
		<path class="st10" d="M785.57,493.72h-6.26v-8.48h6.26c1.07,0,1.94,0.87,1.94,1.94v4.59
			C787.51,492.84,786.64,493.72,785.57,493.72z"/>
		<path class="st10" d="M795.69,522.35h-14.31c-1.07,0-1.94-0.87-1.94-1.94v-4.59c0-1.07,0.87-1.94,1.94-1.94h14.31
			c1.07,0,1.94,0.87,1.94,1.94v4.59C797.63,521.47,796.76,522.35,795.69,522.35z"/>
		<path class="st10" d="M795.69,503.43h-14.31c-1.07,0-1.94-0.87-1.94-1.94v-4.59c0-1.07,0.87-1.94,1.94-1.94h14.31
			c1.07,0,1.94,0.87,1.94,1.94v4.59C797.63,502.55,796.76,503.43,795.69,503.43z"/>
	</g>
	<g>
		<path class="st10" d="M475.74,512.89h-6.26v-8.48h6.26c1.07,0,1.94,0.87,1.94,1.94v4.59
			C477.68,512.01,476.81,512.89,475.74,512.89z"/>
		<path class="st10" d="M475.74,493.72h-6.26v-8.48h6.26c1.07,0,1.94,0.87,1.94,1.94v4.59
			C477.68,492.84,476.81,493.72,475.74,493.72z"/>
		<path class="st10" d="M485.86,522.35h-14.31c-1.07,0-1.94-0.87-1.94-1.94v-4.59c0-1.07,0.87-1.94,1.94-1.94h14.31
			c1.07,0,1.94,0.87,1.94,1.94v4.59C487.8,521.47,486.93,522.35,485.86,522.35z"/>
		<path class="st10" d="M485.86,503.43h-14.31c-1.07,0-1.94-0.87-1.94-1.94v-4.59c0-1.07,0.87-1.94,1.94-1.94h14.31
			c1.07,0,1.94,0.87,1.94,1.94v4.59C487.8,502.55,486.93,503.43,485.86,503.43z"/>
	</g>
	<g>
		<path class="st10" d="M917.62,512.89h6.26v-8.48h-6.26c-1.07,0-1.94,0.87-1.94,1.94v4.59
			C915.68,512.01,916.56,512.89,917.62,512.89z"/>
		<path class="st10" d="M917.62,493.72h6.26v-8.48h-6.26c-1.07,0-1.94,0.87-1.94,1.94v4.59
			C915.68,492.84,916.56,493.72,917.62,493.72z"/>
		<path class="st10" d="M907.5,522.35h14.31c1.07,0,1.94-0.87,1.94-1.94v-4.59c0-1.07-0.87-1.94-1.94-1.94H907.5
			c-1.07,0-1.94,0.87-1.94,1.94v4.59C905.56,521.47,906.43,522.35,907.5,522.35z"/>
		<path class="st10" d="M907.5,503.43h14.31c1.07,0,1.94-0.87,1.94-1.94v-4.59c0-1.07-0.87-1.94-1.94-1.94H907.5
			c-1.07,0-1.94,0.87-1.94,1.94v4.59C905.56,502.55,906.43,503.43,907.5,503.43z"/>
	</g>
	<rect x="464.86" y="485.19" class="st11" width="461.82" height="4.96"/>
	<rect x="464.86" y="299.4" class="st7" width="461.82" height="7.19"/>
	<rect x="464.86" y="248.26" class="st7" width="461.82" height="6"/>
	<rect x="464.86" y="243.49" class="st9" width="461.82" height="4.77"/>
	<g>
		<g>
			<g>
				<rect x="796.3" y="311.66" class="st3" width="27.27" height="57.28"/>
				<path class="st4" d="M795.28,310.3h29.32v60.01h-29.32V310.3L795.28,310.3z M797.49,312.51v55.57h24.89v-55.57H797.49z"/>
				<rect x="809" y="311.4" class="st4" width="1.88" height="57.79"/>
				<rect x="796.47" y="339.36" class="st4" width="26.93" height="1.88"/>
				<rect x="796.56" y="325.38" class="st4" width="26.93" height="1.02"/>
				<rect x="796.64" y="353.85" class="st4" width="26.93" height="1.02"/>
			</g>
			<rect x="791.87" y="369.28" class="st4" width="36.14" height="4.26"/>
			<rect x="791.87" y="373.54" class="st5" width="36.14" height="5.37"/>
		</g>
		<g>
			<g>
				<rect x="838.19" y="311.66" class="st3" width="27.27" height="57.28"/>
				<path class="st4" d="M837.16,310.3h29.32v60.01h-29.32V310.3L837.16,310.3z M839.38,312.51v55.57h24.89v-55.57H839.38z"/>
				<rect x="850.88" y="311.4" class="st4" width="1.88" height="57.79"/>
				<rect x="838.35" y="339.36" class="st4" width="26.93" height="1.88"/>
				<rect x="838.44" y="325.38" class="st4" width="26.93" height="1.02"/>
				<rect x="838.52" y="353.85" class="st4" width="26.94" height="1.02"/>
			</g>
			<rect x="833.75" y="369.28" class="st4" width="36.14" height="4.26"/>
			<rect x="833.75" y="373.54" class="st5" width="36.14" height="5.37"/>
		</g>
		<g>
			<g>
				<rect x="880.07" y="311.66" class="st3" width="27.27" height="57.28"/>
				<path class="st4" d="M879.04,310.3h29.32v60.01h-29.32V310.3L879.04,310.3z M881.26,312.51v55.57h24.89v-55.57H881.26z"/>
				<rect x="892.76" y="311.4" class="st4" width="1.88" height="57.79"/>
				<rect x="880.23" y="339.36" class="st4" width="26.94" height="1.88"/>
				<rect x="880.32" y="325.38" class="st4" width="26.94" height="1.02"/>
				<rect x="880.4" y="353.85" class="st4" width="26.93" height="1.02"/>
			</g>
			<rect x="875.63" y="369.28" class="st4" width="36.14" height="4.26"/>
			<rect x="875.63" y="373.54" class="st5" width="36.14" height="5.37"/>
		</g>
	</g>
	<g>
		<g>
			<g>
				<rect x="796.3" y="397.76" class="st3" width="27.27" height="57.28"/>
				<path class="st4" d="M795.28,396.4h29.32v60.01h-29.32V396.4L795.28,396.4z M797.49,398.62v55.58h24.89v-55.58H797.49z"/>
				<rect x="809" y="397.51" class="st4" width="1.88" height="57.79"/>
				<rect x="796.47" y="425.47" class="st4" width="26.93" height="1.88"/>
				<rect x="796.56" y="411.49" class="st4" width="26.93" height="1.02"/>
				<rect x="796.64" y="439.96" class="st4" width="26.93" height="1.02"/>
			</g>
			<rect x="791.87" y="455.39" class="st4" width="36.14" height="4.26"/>
			<rect x="791.87" y="459.65" class="st5" width="36.14" height="5.37"/>
		</g>
		<g>
			<g>
				<rect x="838.19" y="397.76" class="st3" width="27.27" height="57.28"/>
				<path class="st4" d="M837.16,396.4h29.32v60.01h-29.32V396.4L837.16,396.4z M839.38,398.62v55.58h24.89v-55.58H839.38z"/>
				<rect x="850.88" y="397.51" class="st4" width="1.88" height="57.79"/>
				<rect x="838.35" y="425.47" class="st4" width="26.93" height="1.88"/>
				<rect x="838.44" y="411.49" class="st4" width="26.93" height="1.02"/>
				<rect x="838.52" y="439.96" class="st4" width="26.94" height="1.02"/>
			</g>
			<rect x="833.75" y="455.39" class="st4" width="36.14" height="4.26"/>
			<rect x="833.75" y="459.65" class="st5" width="36.14" height="5.37"/>
		</g>
		<g>
			<g>
				<rect x="880.07" y="397.76" class="st3" width="27.27" height="57.28"/>
				<path class="st4" d="M879.04,396.4h29.32v60.01h-29.32V396.4L879.04,396.4z M881.26,398.62v55.58h24.89v-55.58H881.26z"/>
				<rect x="892.76" y="397.51" class="st4" width="1.88" height="57.79"/>
				<rect x="880.23" y="425.47" class="st4" width="26.94" height="1.88"/>
				<rect x="880.32" y="411.49" class="st4" width="26.94" height="1.02"/>
				<rect x="880.4" y="439.96" class="st4" width="26.93" height="1.02"/>
			</g>
			<rect x="875.63" y="455.39" class="st4" width="36.14" height="4.26"/>
			<rect x="875.63" y="459.65" class="st5" width="36.14" height="5.37"/>
		</g>
	</g>
	<rect x="464.86" y="278.95" class="st10" width="461.82" height="20.46"/>
	<rect x="464.77" y="263.26" class="st9" width="461.98" height="15.68"/>
	<rect x="464.86" y="278.95" class="st11" width="461.82" height="4.6"/>
	<rect x="614.8" y="391.98" class="st12" width="161.92" height="132.94"/>
	<path class="st13" d="M662.55,523.9v-73.64c0-43.03,66.43-43.03,66.43,0v73.64C705.97,523.9,685.56,523.9,662.55,523.9z"/>
	<g>
		<path class="st14" d="M668.3,513.92v-62.35c0-36.44,54.92-36.44,54.92,0v62.35C704.2,513.92,687.33,513.92,668.3,513.92z"/>
		<path class="st15" d="M672.81,508.78v-53.85c0-12.23,5.91-20.11,13.48-23.61c5.95-2.75,13.01-2.75,18.96,0
			c7.57,3.5,13.48,11.38,13.48,23.61v53.85v2.08h-2.27h-41.37h-2.27V508.78L672.81,508.78z M677.35,454.93v51.77h36.82v-51.77
			c0-10.43-4.81-17.06-10.97-19.9c-4.66-2.15-10.22-2.15-14.88,0C682.17,437.87,677.35,444.49,677.35,454.93z"/>
		<path class="st15" d="M684.45,458.17h22.63c0.99,0,1.88,0.35,2.52,0.92c0.65,0.57,1.05,1.36,1.05,2.22v40.04
			c0,0.86-0.4,1.65-1.05,2.22l0,0c-0.64,0.57-1.54,0.92-2.52,0.92h-22.63c-0.98,0-1.87-0.35-2.51-0.92h-0.01
			c-0.65-0.57-1.05-1.36-1.05-2.22v-40.04c0-0.86,0.4-1.65,1.05-2.22l0,0C682.58,458.53,683.47,458.17,684.45,458.17L684.45,458.17z
			 M707.08,460.95h-22.63c-0.11,0-0.22,0.04-0.3,0.11h-0.01c-0.07,0.06-0.12,0.16-0.12,0.26v40.04c0,0.1,0.05,0.19,0.13,0.26l0,0
			c0.08,0.07,0.18,0.11,0.3,0.11h22.63c0.12,0,0.22-0.04,0.3-0.11h0.01c0.07-0.06,0.12-0.16,0.12-0.26v-40.04
			c0-0.1-0.05-0.19-0.13-0.26C707.3,460.99,707.19,460.95,707.08,460.95z"/>
		<path class="st15" d="M695.76,436.52L695.76,436.52c4.13,0,7.88,1.7,10.58,4.43c2.66,2.68,4.3,6.37,4.3,10.41v4.3v1.39h-1.57
			h-26.62h-1.57v-1.39v-4.3c0-4.04,1.65-7.73,4.3-10.41C687.89,438.22,691.63,436.52,695.76,436.52L695.76,436.52z M695.76,439.29
			L695.76,439.29c-3.19,0-6.1,1.33-8.22,3.48c-2.17,2.2-3.52,5.24-3.52,8.6v2.91h23.47v-2.91c0-3.36-1.35-6.4-3.52-8.6
			C701.86,440.63,698.95,439.29,695.76,439.29z"/>
	</g>
	<rect x="655.62" y="514.63" class="st16" width="80.29" height="7.29"/>
	<rect x="653.14" y="521.92" class="st4" width="85.24" height="11.09"/>
	<polygon class="st17" points="617.39,414.96 773.39,414.53 888.04,525.11 731.59,525.11 	"/>
	<g>
		<g>
			<g>
				<rect x="622.83" y="416.52" class="st9" width="11.1" height="77.29"/>
				<rect x="622.83" y="416.65" class="st17" width="11.1" height="5.08"/>
				<rect x="620.71" y="415.21" class="st4" width="15.35" height="3.1"/>
				<rect x="622.83" y="489.44" class="st17" width="11.1" height="4.36"/>
				<rect x="620.71" y="492.84" class="st4" width="15.35" height="3.45"/>
			</g>
			<g>
				<rect x="643" y="416.32" class="st9" width="11.1" height="77.48"/>
				<rect x="642.98" y="416.65" class="st17" width="11.1" height="5.08"/>
				<rect x="640.88" y="415.21" class="st4" width="15.34" height="3.1"/>
				<rect x="642.98" y="489.44" class="st17" width="11.1" height="4.36"/>
				<rect x="640.88" y="492.84" class="st4" width="15.34" height="3.45"/>
			</g>
		</g>
		<g>
			<rect x="618.73" y="499.84" class="st9" width="39.47" height="26.45"/>
			<rect x="617.41" y="526.29" class="st4" width="42.11" height="8.49"/>
			<rect x="618.73" y="499.84" class="st17" width="39.47" height="5.93"/>
			<rect x="617.99" y="496.19" class="st4" width="40.94" height="5.28"/>
		</g>
		<g>
			<rect x="728.74" y="499.84" class="st9" width="43.91" height="26.45"/>
			<rect x="727.27" y="526.29" class="st4" width="46.85" height="8.49"/>
			<g>
				<g>
					<rect x="731.84" y="416.52" class="st9" width="11.1" height="77.29"/>
					<rect x="731.84" y="416.65" class="st18" width="11.1" height="5.08"/>
					<rect x="729.72" y="415.21" class="st4" width="15.35" height="3.1"/>
					<rect x="731.84" y="489.44" class="st18" width="11.1" height="4.36"/>
					<rect x="729.72" y="492.84" class="st4" width="15.35" height="3.45"/>
				</g>
				<g>
					<rect x="758.45" y="416.32" class="st9" width="11.1" height="77.48"/>
					<rect x="758.43" y="416.65" class="st18" width="11.1" height="5.08"/>
					<rect x="756.33" y="415.21" class="st4" width="15.35" height="3.1"/>
					<rect x="758.43" y="489.44" class="st18" width="11.1" height="4.36"/>
					<rect x="756.33" y="492.84" class="st4" width="15.34" height="3.45"/>
				</g>
			</g>
			<rect x="728.74" y="499.84" class="st19" width="43.91" height="5.93"/>
			<rect x="727.92" y="496.19" class="st4" width="45.54" height="5.28"/>
		</g>
	</g>
	<rect x="617.41" y="395.7" class="st9" width="156.71" height="19.59"/>
	<rect x="617.41" y="395.7" class="st17" width="156.71" height="10.72"/>
	<rect x="610.55" y="385.3" class="st4" width="170.42" height="14.86"/>
	<g>
		<g>
			<g>
				<rect x="733.03" y="305.71" class="st9" width="11.1" height="77.29"/>
				<rect x="733.03" y="305.84" class="st18" width="11.1" height="5.08"/>
				<rect x="730.9" y="304.4" class="st4" width="15.35" height="3.1"/>
				<rect x="733.03" y="378.63" class="st18" width="11.1" height="4.36"/>
				<rect x="730.9" y="382.03" class="st4" width="15.35" height="3.45"/>
			</g>
			<g>
				<rect x="759.63" y="305.51" class="st9" width="11.1" height="77.48"/>
				<rect x="759.61" y="305.84" class="st18" width="11.1" height="5.08"/>
				<rect x="757.51" y="304.4" class="st4" width="15.34" height="3.1"/>
				<rect x="759.61" y="378.63" class="st18" width="11.1" height="4.36"/>
				<rect x="757.51" y="382.03" class="st4" width="15.34" height="3.45"/>
			</g>
		</g>
		<g>
			<g>
				<rect x="620.8" y="305.71" class="st9" width="11.1" height="77.29"/>
				<rect x="620.8" y="305.84" class="st18" width="11.1" height="5.08"/>
				<rect x="618.67" y="304.4" class="st4" width="15.35" height="3.1"/>
				<rect x="620.8" y="378.63" class="st18" width="11.1" height="4.36"/>
				<rect x="618.67" y="382.03" class="st4" width="15.35" height="3.45"/>
			</g>
			<g>
				<rect x="647.41" y="305.51" class="st9" width="11.1" height="77.48"/>
				<rect x="647.38" y="305.84" class="st18" width="11.1" height="5.08"/>
				<rect x="645.28" y="304.4" class="st4" width="15.34" height="3.1"/>
				<rect x="647.38" y="378.63" class="st18" width="11.1" height="4.36"/>
				<rect x="645.28" y="382.03" class="st4" width="15.35" height="3.45"/>
			</g>
		</g>
	</g>
	<rect x="613.44" y="286.13" class="st10" width="164.65" height="18.62"/>
	<rect x="613.44" y="286.13" class="st11" width="164.65" height="5.67"/>
	<polygon class="st9" points="605.67,286.13 785.86,286.13 785.86,273.5 695.76,208.61 605.67,273.5 	"/>
	<polygon class="st11" points="695.76,225.26 758.81,273.22 747.46,273.22 695.76,233.89 644.07,273.22 632.72,273.22 	"/>
	<g>
		<g>
			<g>
				<rect x="484.98" y="311.66" class="st3" width="27.27" height="57.28"/>
				<path class="st4" d="M483.95,310.3h29.32v60.01h-29.32V310.3L483.95,310.3z M486.17,312.51v55.57h24.89v-55.57H486.17z"/>
				<rect x="497.68" y="311.4" class="st4" width="1.88" height="57.79"/>
				<rect x="485.15" y="339.36" class="st4" width="26.94" height="1.88"/>
				<rect x="485.23" y="325.38" class="st4" width="26.94" height="1.02"/>
				<rect x="485.32" y="353.85" class="st4" width="26.94" height="1.02"/>
			</g>
			<rect x="480.55" y="369.28" class="st4" width="36.14" height="4.26"/>
			<rect x="480.55" y="373.54" class="st5" width="36.14" height="5.37"/>
		</g>
		<g>
			<g>
				<rect x="526.86" y="311.66" class="st3" width="27.27" height="57.28"/>
				<path class="st4" d="M525.84,310.3h29.32v60.01h-29.32V310.3L525.84,310.3z M528.05,312.51v55.57h24.89v-55.57H528.05z"/>
				<rect x="539.56" y="311.4" class="st4" width="1.88" height="57.79"/>
				<rect x="527.03" y="339.36" class="st4" width="26.93" height="1.88"/>
				<rect x="527.11" y="325.38" class="st4" width="26.93" height="1.02"/>
				<rect x="527.2" y="353.85" class="st4" width="26.93" height="1.02"/>
			</g>
			<rect x="522.43" y="369.28" class="st4" width="36.14" height="4.26"/>
			<rect x="522.43" y="373.54" class="st5" width="36.14" height="5.37"/>
		</g>
		<g>
			<g>
				<rect x="568.74" y="311.66" class="st3" width="27.27" height="57.28"/>
				<path class="st4" d="M567.72,310.3h29.32v60.01h-29.32V310.3L567.72,310.3z M569.93,312.51v55.57h24.89v-55.57H569.93z"/>
				<rect x="581.44" y="311.4" class="st4" width="1.88" height="57.79"/>
				<rect x="568.91" y="339.36" class="st4" width="26.93" height="1.88"/>
				<rect x="569" y="325.38" class="st4" width="26.93" height="1.02"/>
				<rect x="569.08" y="353.85" class="st4" width="26.93" height="1.02"/>
			</g>
			<rect x="564.31" y="369.28" class="st4" width="36.14" height="4.26"/>
			<rect x="564.31" y="373.54" class="st5" width="36.14" height="5.37"/>
		</g>
	</g>
	<g>
		<g>
			<g>
				<rect x="484.98" y="397.76" class="st3" width="27.27" height="57.28"/>
				<path class="st4" d="M483.95,396.4h29.32v60.01h-29.32V396.4L483.95,396.4z M486.17,398.62v55.58h24.89v-55.58H486.17z"/>
				<rect x="497.68" y="397.51" class="st4" width="1.88" height="57.79"/>
				<rect x="485.15" y="425.47" class="st4" width="26.94" height="1.88"/>
				<rect x="485.23" y="411.49" class="st4" width="26.94" height="1.02"/>
				<rect x="485.32" y="439.96" class="st4" width="26.94" height="1.02"/>
			</g>
			<rect x="480.55" y="455.39" class="st4" width="36.14" height="4.26"/>
			<rect x="480.55" y="459.65" class="st5" width="36.14" height="5.37"/>
		</g>
		<g>
			<g>
				<rect x="526.86" y="397.76" class="st3" width="27.27" height="57.28"/>
				<path class="st4" d="M525.84,396.4h29.32v60.01h-29.32V396.4L525.84,396.4z M528.05,398.62v55.58h24.89v-55.58H528.05z"/>
				<rect x="539.56" y="397.51" class="st4" width="1.88" height="57.79"/>
				<rect x="527.03" y="425.47" class="st4" width="26.93" height="1.88"/>
				<rect x="527.11" y="411.49" class="st4" width="26.93" height="1.02"/>
				<rect x="527.2" y="439.96" class="st4" width="26.93" height="1.02"/>
			</g>
			<rect x="522.43" y="455.39" class="st4" width="36.14" height="4.26"/>
			<rect x="522.43" y="459.65" class="st5" width="36.14" height="5.37"/>
		</g>
		<g>
			<g>
				<rect x="568.74" y="397.76" class="st3" width="27.27" height="57.28"/>
				<path class="st4" d="M567.72,396.4h29.32v60.01h-29.32V396.4L567.72,396.4z M569.93,398.62v55.58h24.89v-55.58H569.93z"/>
				<rect x="581.44" y="397.51" class="st4" width="1.88" height="57.79"/>
				<rect x="568.91" y="425.47" class="st4" width="26.93" height="1.88"/>
				<rect x="569" y="411.49" class="st4" width="26.93" height="1.02"/>
				<rect x="569.08" y="439.96" class="st4" width="26.93" height="1.02"/>
			</g>
			<rect x="564.31" y="455.39" class="st4" width="36.14" height="4.26"/>
			<rect x="564.31" y="459.65" class="st5" width="36.14" height="5.37"/>
		</g>
	</g>
	<rect x="464.86" y="243.89" class="st8" width="17.89" height="281.22"/>
	<rect x="396.59" y="248.26" class="st20" width="68.97" height="276.85"/>
	<g>
		<g>
			<g>
				<path class="st21" d="M404.82,311.45h-6.26v8.48h6.26c1.07,0,1.94-0.87,1.94-1.94v-4.59
					C406.77,312.32,405.89,311.45,404.82,311.45z"/>
				<path class="st21" d="M404.82,330.62h-6.26v8.48h6.26c1.07,0,1.94-0.87,1.94-1.94v-4.59
					C406.77,331.49,405.89,330.62,404.82,330.62z"/>
				<path class="st21" d="M404.82,350.16h-6.26v8.48h6.26c1.07,0,1.94-0.87,1.94-1.94v-4.59
					C406.77,351.03,405.89,350.16,404.82,350.16z"/>
				<path class="st21" d="M404.82,369.33h-6.26v8.48h6.26c1.07,0,1.94-0.87,1.94-1.94v-4.59
					C406.77,370.2,405.89,369.33,404.82,369.33z"/>
				<path class="st21" d="M404.82,388.68h-6.26v8.48h6.26c1.07,0,1.94-0.87,1.94-1.94v-4.59
					C406.77,389.56,405.89,388.68,404.82,388.68z"/>
				<path class="st21" d="M404.82,407.85h-6.26v8.48h6.26c1.07,0,1.94-0.87,1.94-1.94v-4.59
					C406.77,408.73,405.89,407.85,404.82,407.85z"/>
				<path class="st21" d="M404.95,292.11h-6.38v8.48h6.38c1.07,0,1.94-0.87,1.94-1.94v-4.59
					C406.89,292.99,406.02,292.11,404.95,292.11z"/>
			</g>
			<g>
				<path class="st21" d="M414.94,301.98h-14.31c-1.07,0-1.94,0.87-1.94,1.94v4.59c0,1.07,0.87,1.94,1.94,1.94h14.31
					c1.07,0,1.94-0.87,1.94-1.94v-4.59C416.88,302.86,416.01,301.98,414.94,301.98z"/>
				<path class="st21" d="M414.94,320.91h-14.31c-1.07,0-1.94,0.87-1.94,1.94v4.59c0,1.07,0.87,1.94,1.94,1.94h14.31
					c1.07,0,1.94-0.87,1.94-1.94v-4.59C416.88,321.78,416.01,320.91,414.94,320.91z"/>
				<path class="st21" d="M414.81,340.69h-14.31c-1.07,0-1.94,0.87-1.94,1.94v4.59c0,1.07,0.87,1.94,1.94,1.94h14.31
					c1.07,0,1.94-0.87,1.94-1.94v-4.59C416.76,341.57,415.89,340.69,414.81,340.69z"/>
				<path class="st21" d="M414.81,359.62h-14.31c-1.07,0-1.94,0.87-1.94,1.94v4.59c0,1.07,0.87,1.94,1.94,1.94h14.31
					c1.07,0,1.94-0.87,1.94-1.94v-4.59C416.76,360.49,415.89,359.62,414.81,359.62z"/>
				<path class="st21" d="M414.81,379.22h-14.31c-1.07,0-1.94,0.87-1.94,1.94v4.59c0,1.07,0.87,1.94,1.94,1.94h14.31
					c1.07,0,1.94-0.87,1.94-1.94v-4.59C416.76,380.1,415.89,379.22,414.81,379.22z"/>
				<path class="st21" d="M414.81,398.14h-14.31c-1.07,0-1.94,0.87-1.94,1.94v4.59c0,1.07,0.87,1.94,1.94,1.94h14.31
					c1.07,0,1.94-0.87,1.94-1.94v-4.59C416.76,399.02,415.89,398.14,414.81,398.14z"/>
				<path class="st21" d="M414.94,282.36h-14.31c-1.07,0-1.94,0.88-1.94,1.94v4.59c0,1.07,0.87,1.94,1.94,1.94h14.31
					c1.07,0,1.94-0.87,1.94-1.94v-4.59C416.88,283.23,416.01,282.36,414.94,282.36z"/>
			</g>
		</g>
		<g>
			<g>
				<path class="st21" d="M404.82,512.89h-6.26v-8.48h6.26c1.07,0,1.94,0.87,1.94,1.94v4.59
					C406.77,512.01,405.89,512.89,404.82,512.89z"/>
				<path class="st21" d="M404.82,493.72h-6.26v-8.48h6.26c1.07,0,1.94,0.87,1.94,1.94v4.59
					C406.77,492.84,405.89,493.72,404.82,493.72z"/>
				<path class="st21" d="M404.82,474.18h-6.26v-8.48h6.26c1.07,0,1.94,0.87,1.94,1.94v4.59
					C406.77,473.3,405.89,474.18,404.82,474.18z"/>
				<path class="st21" d="M404.82,455.01h-6.26v-8.48h6.26c1.07,0,1.94,0.87,1.94,1.94v4.59
					C406.77,454.13,405.89,455.01,404.82,455.01z"/>
				<path class="st21" d="M404.82,435.65h-6.26v-8.48h6.26c1.07,0,1.94,0.87,1.94,1.94v4.59
					C406.77,434.78,405.89,435.65,404.82,435.65z"/>
				<path class="st21" d="M404.82,416.48h-6.26V408h6.26c1.07,0,1.94,0.87,1.94,1.94v4.59
					C406.77,415.61,405.89,416.48,404.82,416.48z"/>
			</g>
			<g>
				<path class="st21" d="M414.94,522.35h-14.31c-1.07,0-1.94-0.87-1.94-1.94v-4.59c0-1.07,0.87-1.94,1.94-1.94h14.31
					c1.07,0,1.94,0.87,1.94,1.94v4.59C416.88,521.47,416.01,522.35,414.94,522.35z"/>
				<path class="st21" d="M414.94,503.43h-14.31c-1.07,0-1.94-0.87-1.94-1.94v-4.59c0-1.07,0.87-1.94,1.94-1.94h14.31
					c1.07,0,1.94,0.87,1.94,1.94v4.59C416.88,502.55,416.01,503.43,414.94,503.43z"/>
				<path class="st21" d="M414.81,483.64h-14.31c-1.07,0-1.94-0.87-1.94-1.94v-4.59c0-1.07,0.87-1.94,1.94-1.94h14.31
					c1.07,0,1.94,0.87,1.94,1.94v4.59C416.76,482.77,415.89,483.64,414.81,483.64z"/>
				<path class="st21" d="M414.81,464.72h-14.31c-1.07,0-1.94-0.87-1.94-1.94v-4.59c0-1.07,0.87-1.94,1.94-1.94h14.31
					c1.07,0,1.94,0.87,1.94,1.94v4.59C416.76,463.84,415.89,464.72,414.81,464.72z"/>
				<path class="st21" d="M414.81,445.11h-14.31c-1.07,0-1.94-0.87-1.94-1.94v-4.59c0-1.07,0.87-1.94,1.94-1.94h14.31
					c1.07,0,1.94,0.87,1.94,1.94v4.59C416.76,444.24,415.89,445.11,414.81,445.11z"/>
				<path class="st21" d="M414.81,426.19h-14.31c-1.07,0-1.94-0.87-1.94-1.94v-4.59c0-1.07,0.87-1.94,1.94-1.94h14.31
					c1.07,0,1.94,0.87,1.94,1.94v4.59C416.76,425.32,415.89,426.19,414.81,426.19z"/>
			</g>
		</g>
	</g>
	<g>
		<g>
			<g>
				<path class="st21" d="M457.51,311.45h6.26v8.48h-6.26c-1.07,0-1.95-0.87-1.95-1.94v-4.59
					C455.56,312.32,456.44,311.45,457.51,311.45z"/>
				<path class="st21" d="M457.51,330.62h6.26v8.48h-6.26c-1.07,0-1.95-0.87-1.95-1.94v-4.59
					C455.56,331.49,456.44,330.62,457.51,330.62z"/>
				<path class="st21" d="M457.51,350.16h6.26v8.48h-6.26c-1.07,0-1.95-0.87-1.95-1.94v-4.59
					C455.56,351.03,456.44,350.16,457.51,350.16z"/>
				<path class="st21" d="M457.51,369.33h6.26v8.48h-6.26c-1.07,0-1.95-0.87-1.95-1.94v-4.59
					C455.56,370.2,456.44,369.33,457.51,369.33z"/>
				<path class="st21" d="M457.51,388.68h6.26v8.48h-6.26c-1.07,0-1.95-0.87-1.95-1.94v-4.59
					C455.56,389.56,456.44,388.68,457.51,388.68z"/>
				<path class="st21" d="M457.51,407.85h6.26v8.48h-6.26c-1.07,0-1.95-0.87-1.95-1.94v-4.59
					C455.56,408.73,456.44,407.85,457.51,407.85z"/>
				<path class="st21" d="M457.38,292.11h6.38v8.48h-6.38c-1.07,0-1.95-0.87-1.95-1.94v-4.59
					C455.44,292.99,456.31,292.11,457.38,292.11z"/>
			</g>
			<g>
				<path class="st21" d="M447.39,301.98h14.31c1.07,0,1.94,0.87,1.94,1.94v4.59c0,1.07-0.87,1.94-1.94,1.94h-14.31
					c-1.07,0-1.94-0.87-1.94-1.94v-4.59C445.44,302.86,446.32,301.98,447.39,301.98z"/>
				<path class="st21" d="M447.39,320.91h14.31c1.07,0,1.94,0.87,1.94,1.94v4.59c0,1.07-0.87,1.94-1.94,1.94h-14.31
					c-1.07,0-1.94-0.87-1.94-1.94v-4.59C445.44,321.78,446.32,320.91,447.39,320.91z"/>
				<path class="st21" d="M447.51,340.69h14.31c1.07,0,1.94,0.87,1.94,1.94v4.59c0,1.07-0.87,1.94-1.94,1.94h-14.31
					c-1.07,0-1.94-0.87-1.94-1.94v-4.59C445.57,341.57,446.44,340.69,447.51,340.69z"/>
				<path class="st21" d="M447.51,359.62h14.31c1.07,0,1.94,0.87,1.94,1.94v4.59c0,1.07-0.87,1.94-1.94,1.94h-14.31
					c-1.07,0-1.94-0.87-1.94-1.94v-4.59C445.57,360.49,446.44,359.62,447.51,359.62z"/>
				<path class="st21" d="M447.51,379.22h14.31c1.07,0,1.94,0.87,1.94,1.94v4.59c0,1.07-0.87,1.94-1.94,1.94h-14.31
					c-1.07,0-1.94-0.87-1.94-1.94v-4.59C445.57,380.1,446.44,379.22,447.51,379.22z"/>
				<path class="st21" d="M447.51,398.14h14.31c1.07,0,1.94,0.87,1.94,1.94v4.59c0,1.07-0.87,1.94-1.94,1.94h-14.31
					c-1.07,0-1.94-0.87-1.94-1.94v-4.59C445.57,399.02,446.44,398.14,447.51,398.14z"/>
				<path class="st21" d="M447.39,282.36h14.31c1.07,0,1.94,0.88,1.94,1.94v4.59c0,1.07-0.87,1.94-1.94,1.94h-14.31
					c-1.07,0-1.94-0.87-1.94-1.94v-4.59C445.44,283.23,446.32,282.36,447.39,282.36z"/>
			</g>
		</g>
		<g>
			<g>
				<path class="st21" d="M457.51,512.89h6.26v-8.48h-6.26c-1.07,0-1.95,0.87-1.95,1.94v4.59
					C455.56,512.01,456.44,512.89,457.51,512.89z"/>
				<path class="st21" d="M457.51,493.72h6.26v-8.48h-6.26c-1.07,0-1.95,0.87-1.95,1.94v4.59
					C455.56,492.84,456.44,493.72,457.51,493.72z"/>
				<path class="st21" d="M457.51,474.18h6.26v-8.48h-6.26c-1.07,0-1.95,0.87-1.95,1.94v4.59
					C455.56,473.3,456.44,474.18,457.51,474.18z"/>
				<path class="st21" d="M457.51,455.01h6.26v-8.48h-6.26c-1.07,0-1.95,0.87-1.95,1.94v4.59
					C455.56,454.13,456.44,455.01,457.51,455.01z"/>
				<path class="st21" d="M457.51,435.65h6.26v-8.48h-6.26c-1.07,0-1.95,0.87-1.95,1.94v4.59
					C455.56,434.78,456.44,435.65,457.51,435.65z"/>
				<path class="st21" d="M457.51,416.48h6.26V408h-6.26c-1.07,0-1.95,0.87-1.95,1.94v4.59
					C455.56,415.61,456.44,416.48,457.51,416.48z"/>
			</g>
			<g>
				<path class="st21" d="M447.39,522.35h14.31c1.07,0,1.94-0.87,1.94-1.94v-4.59c0-1.07-0.87-1.94-1.94-1.94h-14.31
					c-1.07,0-1.94,0.87-1.94,1.94v4.59C445.44,521.47,446.32,522.35,447.39,522.35z"/>
				<path class="st21" d="M447.39,503.43h14.31c1.07,0,1.94-0.87,1.94-1.94v-4.59c0-1.07-0.87-1.94-1.94-1.94h-14.31
					c-1.07,0-1.94,0.87-1.94,1.94v4.59C445.44,502.55,446.32,503.43,447.39,503.43z"/>
				<path class="st21" d="M447.51,483.64h14.31c1.07,0,1.94-0.87,1.94-1.94v-4.59c0-1.07-0.87-1.94-1.94-1.94h-14.31
					c-1.07,0-1.94,0.87-1.94,1.94v4.59C445.57,482.77,446.44,483.64,447.51,483.64z"/>
				<path class="st21" d="M447.51,464.72h14.31c1.07,0,1.94-0.87,1.94-1.94v-4.59c0-1.07-0.87-1.94-1.94-1.94h-14.31
					c-1.07,0-1.94,0.87-1.94,1.94v4.59C445.57,463.84,446.44,464.72,447.51,464.72z"/>
				<path class="st21" d="M447.51,445.11h14.31c1.07,0,1.94-0.87,1.94-1.94v-4.59c0-1.07-0.87-1.94-1.94-1.94h-14.31
					c-1.07,0-1.94,0.87-1.94,1.94v4.59C445.57,444.24,446.44,445.11,447.51,445.11z"/>
				<path class="st21" d="M447.51,426.19h14.31c1.07,0,1.94-0.87,1.94-1.94v-4.59c0-1.07-0.87-1.94-1.94-1.94h-14.31
					c-1.07,0-1.94,0.87-1.94,1.94v4.59C445.57,425.32,446.44,426.19,447.51,426.19z"/>
			</g>
		</g>
	</g>
	<g>
		<g>
			<rect x="417.44" y="311.66" class="st3" width="27.27" height="57.28"/>
			<path class="st4" d="M416.42,310.3h29.32v60.01h-29.32V310.3L416.42,310.3z M418.63,312.51v55.57h24.89v-55.57H418.63z"/>
			<rect x="430.14" y="311.4" class="st4" width="1.87" height="57.79"/>
			<rect x="417.61" y="339.36" class="st4" width="26.93" height="1.88"/>
			<rect x="417.7" y="325.38" class="st4" width="26.93" height="1.02"/>
			<rect x="417.78" y="353.85" class="st4" width="26.93" height="1.02"/>
		</g>
		<rect x="413.01" y="369.28" class="st4" width="36.14" height="4.26"/>
		<rect x="413.01" y="373.54" class="st5" width="36.14" height="5.37"/>
	</g>
	<g>
		<g>
			<rect x="417.44" y="397.76" class="st3" width="27.27" height="57.28"/>
			<path class="st4" d="M416.42,396.4h29.32v60.01h-29.32V396.4L416.42,396.4z M418.63,398.62v55.58h24.89v-55.58H418.63z"/>
			<rect x="430.14" y="397.51" class="st4" width="1.87" height="57.79"/>
			<rect x="417.61" y="425.47" class="st4" width="26.93" height="1.88"/>
			<rect x="417.7" y="411.49" class="st4" width="26.93" height="1.02"/>
			<rect x="417.78" y="439.96" class="st4" width="26.93" height="1.02"/>
		</g>
		<rect x="413.01" y="455.39" class="st4" width="36.14" height="4.26"/>
		<rect x="413.01" y="459.65" class="st5" width="36.14" height="5.37"/>
	</g>
	<rect x="396.59" y="296.19" class="st7" width="68.97" height="9.89"/>
	<rect x="395.95" y="278.95" class="st9" width="70.26" height="20.46"/>
	<rect x="395" y="263.26" class="st4" width="72.16" height="15.68"/>
	<rect x="395.95" y="278.95" class="st11" width="70.26" height="4.6"/>
	<rect x="396.59" y="246.59" class="st7" width="68.97" height="6.82"/>
	<rect x="396.59" y="484.7" class="st4" width="68.97" height="40.42"/>
	<g>
		<path class="st16" d="M404.82,512.89h-6.26v-8.48h6.26c1.07,0,1.94,0.87,1.94,1.94v4.59
			C406.77,512.01,405.89,512.89,404.82,512.89z"/>
		<path class="st16" d="M404.82,493.72h-6.26v-8.48h6.26c1.07,0,1.94,0.87,1.94,1.94v4.59
			C406.77,492.84,405.89,493.72,404.82,493.72z"/>
		<path class="st16" d="M414.94,522.35h-14.31c-1.07,0-1.94-0.87-1.94-1.94v-4.59c0-1.07,0.87-1.94,1.94-1.94h14.31
			c1.07,0,1.94,0.87,1.94,1.94v4.59C416.88,521.47,416.01,522.35,414.94,522.35z"/>
		<path class="st16" d="M414.94,503.43h-14.31c-1.07,0-1.94-0.87-1.94-1.94v-4.59c0-1.07,0.87-1.94,1.94-1.94h14.31
			c1.07,0,1.94,0.87,1.94,1.94v4.59C416.88,502.55,416.01,503.43,414.94,503.43z"/>
		<path class="st16" d="M457.51,512.89h6.26v-8.48h-6.26c-1.07,0-1.95,0.87-1.95,1.94v4.59
			C455.56,512.01,456.44,512.89,457.51,512.89z"/>
		<path class="st16" d="M457.51,493.72h6.26v-8.48h-6.26c-1.07,0-1.95,0.87-1.95,1.94v4.59
			C455.56,492.84,456.44,493.72,457.51,493.72z"/>
		<path class="st16" d="M447.39,522.35h14.31c1.07,0,1.94-0.87,1.94-1.94v-4.59c0-1.07-0.87-1.94-1.94-1.94h-14.31
			c-1.07,0-1.94,0.87-1.94,1.94v4.59C445.44,521.47,446.32,522.35,447.39,522.35z"/>
		<path class="st16" d="M447.39,503.43h14.31c1.07,0,1.94-0.87,1.94-1.94v-4.59c0-1.07-0.87-1.94-1.94-1.94h-14.31
			c-1.07,0-1.94,0.87-1.94,1.94v4.59C445.44,502.55,446.32,503.43,447.39,503.43z"/>
	</g>
	<rect x="395.53" y="478.39" class="st4" width="71.11" height="6.31"/>
	<rect x="396.59" y="484.7" class="st11" width="68.97" height="3.07"/>
	<rect x="908.78" y="243.49" class="st8" width="17.9" height="281.23"/>
	<g>
		<g>
			<path class="st10" d="M698.72,251.88H713c1.07,0,1.94,0.87,1.94,1.94v4.58c0,1.06-0.87,1.94-1.94,1.94h-14.28
				c-1.06,0-1.94-0.87-1.94-1.94v-4.58C696.78,252.75,697.66,251.88,698.72,251.88z"/>
			<path class="st10" d="M678.53,251.88h14.28c1.06,0,1.94,0.87,1.94,1.94v4.58c0,1.06-0.87,1.94-1.94,1.94h-14.28
				c-1.06,0-1.94-0.87-1.94-1.94v-4.58C676.59,252.75,677.46,251.88,678.53,251.88z"/>
		</g>
		<path class="st10" d="M708.82,261.57h14.28c1.06,0,1.94,0.87,1.94,1.94v4.58c0,1.07-0.87,1.94-1.94,1.94h-14.28
			c-1.06,0-1.94-0.87-1.94-1.94v-4.58C706.88,262.44,707.75,261.57,708.82,261.57z"/>
		<path class="st10" d="M688.62,261.57h14.28c1.07,0,1.94,0.87,1.94,1.94v4.58c0,1.07-0.87,1.94-1.94,1.94h-14.28
			c-1.06,0-1.94-0.87-1.94-1.94v-4.58C686.69,262.44,687.56,261.57,688.62,261.57z"/>
		<path class="st10" d="M668.43,261.57h14.28c1.07,0,1.94,0.87,1.94,1.94v4.58c0,1.07-0.87,1.94-1.94,1.94h-14.28
			c-1.07,0-1.94-0.87-1.94-1.94v-4.58C666.49,262.44,667.36,261.57,668.43,261.57z"/>
		<path class="st10" d="M688.62,242.22h14.28c1.07,0,1.94,0.87,1.94,1.94v4.58c0,1.07-0.87,1.94-1.94,1.94h-14.28
			c-1.06,0-1.94-0.87-1.94-1.94v-4.58C686.69,243.09,687.56,242.22,688.62,242.22z"/>
	</g>
	<rect x="926.12" y="248.26" class="st20" width="68.97" height="276.85"/>
	<g>
		<g>
			<g>
				<path class="st21" d="M934.35,311.45h-6.26v8.48h6.26c1.07,0,1.94-0.87,1.94-1.94v-4.59
					C936.3,312.32,935.42,311.45,934.35,311.45z"/>
				<path class="st21" d="M934.35,330.62h-6.26v8.48h6.26c1.07,0,1.94-0.87,1.94-1.94v-4.59
					C936.3,331.49,935.42,330.62,934.35,330.62z"/>
				<path class="st21" d="M934.35,350.16h-6.26v8.48h6.26c1.07,0,1.94-0.87,1.94-1.94v-4.59
					C936.3,351.03,935.42,350.16,934.35,350.16z"/>
				<path class="st21" d="M934.35,369.33h-6.26v8.48h6.26c1.07,0,1.94-0.87,1.94-1.94v-4.59
					C936.3,370.2,935.42,369.33,934.35,369.33z"/>
				<path class="st21" d="M934.35,388.68h-6.26v8.48h6.26c1.07,0,1.94-0.87,1.94-1.94v-4.59
					C936.3,389.56,935.42,388.68,934.35,388.68z"/>
				<path class="st21" d="M934.35,407.85h-6.26v8.48h6.26c1.07,0,1.94-0.87,1.94-1.94v-4.59
					C936.3,408.73,935.42,407.85,934.35,407.85z"/>
				<path class="st21" d="M934.48,292.11h-6.38v8.48h6.38c1.07,0,1.94-0.87,1.94-1.94v-4.59
					C936.42,292.99,935.55,292.11,934.48,292.11z"/>
			</g>
			<g>
				<path class="st21" d="M944.47,301.98h-14.31c-1.07,0-1.94,0.87-1.94,1.94v4.59c0,1.07,0.88,1.94,1.94,1.94h14.31
					c1.07,0,1.94-0.87,1.94-1.94v-4.59C946.42,302.86,945.54,301.98,944.47,301.98z"/>
				<path class="st21" d="M944.47,320.91h-14.31c-1.07,0-1.94,0.87-1.94,1.94v4.59c0,1.07,0.88,1.94,1.94,1.94h14.31
					c1.07,0,1.94-0.87,1.94-1.94v-4.59C946.42,321.78,945.54,320.91,944.47,320.91z"/>
				<path class="st21" d="M944.35,340.69h-14.31c-1.07,0-1.94,0.87-1.94,1.94v4.59c0,1.07,0.88,1.94,1.94,1.94h14.31
					c1.07,0,1.94-0.87,1.94-1.94v-4.59C946.29,341.57,945.42,340.69,944.35,340.69z"/>
				<path class="st21" d="M944.35,359.62h-14.31c-1.07,0-1.94,0.87-1.94,1.94v4.59c0,1.07,0.88,1.94,1.94,1.94h14.31
					c1.07,0,1.94-0.87,1.94-1.94v-4.59C946.29,360.49,945.42,359.62,944.35,359.62z"/>
				<path class="st21" d="M944.35,379.22h-14.31c-1.07,0-1.94,0.87-1.94,1.94v4.59c0,1.07,0.88,1.94,1.94,1.94h14.31
					c1.07,0,1.94-0.87,1.94-1.94v-4.59C946.29,380.1,945.42,379.22,944.35,379.22z"/>
				<path class="st21" d="M944.35,398.14h-14.31c-1.07,0-1.94,0.87-1.94,1.94v4.59c0,1.07,0.88,1.94,1.94,1.94h14.31
					c1.07,0,1.94-0.87,1.94-1.94v-4.59C946.29,399.02,945.42,398.14,944.35,398.14z"/>
				<path class="st21" d="M944.47,282.36h-14.31c-1.07,0-1.94,0.88-1.94,1.94v4.59c0,1.07,0.88,1.94,1.94,1.94h14.31
					c1.07,0,1.94-0.87,1.94-1.94v-4.59C946.42,283.23,945.54,282.36,944.47,282.36z"/>
			</g>
		</g>
		<g>
			<g>
				<path class="st21" d="M934.35,512.89h-6.26v-8.48h6.26c1.07,0,1.94,0.87,1.94,1.94v4.59
					C936.3,512.01,935.42,512.89,934.35,512.89z"/>
				<path class="st21" d="M934.35,493.72h-6.26v-8.48h6.26c1.07,0,1.94,0.87,1.94,1.94v4.59
					C936.3,492.84,935.42,493.72,934.35,493.72z"/>
				<path class="st21" d="M934.35,474.18h-6.26v-8.48h6.26c1.07,0,1.94,0.87,1.94,1.94v4.59
					C936.3,473.3,935.42,474.18,934.35,474.18z"/>
				<path class="st21" d="M934.35,455.01h-6.26v-8.48h6.26c1.07,0,1.94,0.87,1.94,1.94v4.59
					C936.3,454.13,935.42,455.01,934.35,455.01z"/>
				<path class="st21" d="M934.35,435.65h-6.26v-8.48h6.26c1.07,0,1.94,0.87,1.94,1.94v4.59
					C936.3,434.78,935.42,435.65,934.35,435.65z"/>
				<path class="st21" d="M934.35,416.48h-6.26V408h6.26c1.07,0,1.94,0.87,1.94,1.94v4.59C936.3,415.61,935.42,416.48,934.35,416.48
					z"/>
			</g>
			<g>
				<path class="st21" d="M944.47,522.35h-14.31c-1.07,0-1.94-0.87-1.94-1.94v-4.59c0-1.07,0.88-1.94,1.94-1.94h14.31
					c1.07,0,1.94,0.87,1.94,1.94v4.59C946.42,521.47,945.54,522.35,944.47,522.35z"/>
				<path class="st21" d="M944.47,503.43h-14.31c-1.07,0-1.94-0.87-1.94-1.94v-4.59c0-1.07,0.88-1.94,1.94-1.94h14.31
					c1.07,0,1.94,0.87,1.94,1.94v4.59C946.42,502.55,945.54,503.43,944.47,503.43z"/>
				<path class="st21" d="M944.35,483.64h-14.31c-1.07,0-1.94-0.87-1.94-1.94v-4.59c0-1.07,0.88-1.94,1.94-1.94h14.31
					c1.07,0,1.94,0.87,1.94,1.94v4.59C946.29,482.77,945.42,483.64,944.35,483.64z"/>
				<path class="st21" d="M944.35,464.72h-14.31c-1.07,0-1.94-0.87-1.94-1.94v-4.59c0-1.07,0.88-1.94,1.94-1.94h14.31
					c1.07,0,1.94,0.87,1.94,1.94v4.59C946.29,463.84,945.42,464.72,944.35,464.72z"/>
				<path class="st21" d="M944.35,445.11h-14.31c-1.07,0-1.94-0.87-1.94-1.94v-4.59c0-1.07,0.88-1.94,1.94-1.94h14.31
					c1.07,0,1.94,0.87,1.94,1.94v4.59C946.29,444.24,945.42,445.11,944.35,445.11z"/>
				<path class="st21" d="M944.35,426.19h-14.31c-1.07,0-1.94-0.87-1.94-1.94v-4.59c0-1.07,0.88-1.94,1.94-1.94h14.31
					c1.07,0,1.94,0.87,1.94,1.94v4.59C946.29,425.32,945.42,426.19,944.35,426.19z"/>
			</g>
		</g>
	</g>
	<g>
		<g>
			<g>
				<path class="st21" d="M987.04,311.45h6.26v8.48h-6.26c-1.07,0-1.94-0.87-1.94-1.94v-4.59
					C985.1,312.32,985.97,311.45,987.04,311.45z"/>
				<path class="st21" d="M987.04,330.62h6.26v8.48h-6.26c-1.07,0-1.94-0.87-1.94-1.94v-4.59
					C985.1,331.49,985.97,330.62,987.04,330.62z"/>
				<path class="st21" d="M987.04,350.16h6.26v8.48h-6.26c-1.07,0-1.94-0.87-1.94-1.94v-4.59
					C985.1,351.03,985.97,350.16,987.04,350.16z"/>
				<path class="st21" d="M987.04,369.33h6.26v8.48h-6.26c-1.07,0-1.94-0.87-1.94-1.94v-4.59
					C985.1,370.2,985.97,369.33,987.04,369.33z"/>
				<path class="st21" d="M987.04,388.68h6.26v8.48h-6.26c-1.07,0-1.94-0.87-1.94-1.94v-4.59
					C985.1,389.56,985.97,388.68,987.04,388.68z"/>
				<path class="st21" d="M987.04,407.85h6.26v8.48h-6.26c-1.07,0-1.94-0.87-1.94-1.94v-4.59
					C985.1,408.73,985.97,407.85,987.04,407.85z"/>
				<path class="st21" d="M986.91,292.11h6.38v8.48h-6.38c-1.07,0-1.94-0.87-1.94-1.94v-4.59
					C984.97,292.99,985.84,292.11,986.91,292.11z"/>
			</g>
			<g>
				<path class="st21" d="M976.92,301.98h14.31c1.07,0,1.94,0.87,1.94,1.94v4.59c0,1.07-0.88,1.94-1.94,1.94h-14.31
					c-1.07,0-1.94-0.87-1.94-1.94v-4.59C974.97,302.86,975.85,301.98,976.92,301.98z"/>
				<path class="st21" d="M976.92,320.91h14.31c1.07,0,1.94,0.87,1.94,1.94v4.59c0,1.07-0.88,1.94-1.94,1.94h-14.31
					c-1.07,0-1.94-0.87-1.94-1.94v-4.59C974.97,321.78,975.85,320.91,976.92,320.91z"/>
				<path class="st21" d="M977.04,340.69h14.31c1.07,0,1.94,0.87,1.94,1.94v4.59c0,1.07-0.88,1.94-1.94,1.94h-14.31
					c-1.07,0-1.94-0.87-1.94-1.94v-4.59C975.1,341.57,975.98,340.69,977.04,340.69z"/>
				<path class="st21" d="M977.04,359.62h14.31c1.07,0,1.94,0.87,1.94,1.94v4.59c0,1.07-0.88,1.94-1.94,1.94h-14.31
					c-1.07,0-1.94-0.87-1.94-1.94v-4.59C975.1,360.49,975.98,359.62,977.04,359.62z"/>
				<path class="st21" d="M977.04,379.22h14.31c1.07,0,1.94,0.87,1.94,1.94v4.59c0,1.07-0.88,1.94-1.94,1.94h-14.31
					c-1.07,0-1.94-0.87-1.94-1.94v-4.59C975.1,380.1,975.98,379.22,977.04,379.22z"/>
				<path class="st21" d="M977.04,398.14h14.31c1.07,0,1.94,0.87,1.94,1.94v4.59c0,1.07-0.88,1.94-1.94,1.94h-14.31
					c-1.07,0-1.94-0.87-1.94-1.94v-4.59C975.1,399.02,975.98,398.14,977.04,398.14z"/>
				<path class="st21" d="M976.92,282.36h14.31c1.07,0,1.94,0.88,1.94,1.94v4.59c0,1.07-0.88,1.94-1.94,1.94h-14.31
					c-1.07,0-1.94-0.87-1.94-1.94v-4.59C974.97,283.23,975.85,282.36,976.92,282.36z"/>
			</g>
		</g>
		<g>
			<g>
				<path class="st21" d="M987.04,512.89h6.26v-8.48h-6.26c-1.07,0-1.94,0.87-1.94,1.94v4.59
					C985.1,512.01,985.97,512.89,987.04,512.89z"/>
				<path class="st21" d="M987.04,493.72h6.26v-8.48h-6.26c-1.07,0-1.94,0.87-1.94,1.94v4.59
					C985.1,492.84,985.97,493.72,987.04,493.72z"/>
				<path class="st21" d="M987.04,474.18h6.26v-8.48h-6.26c-1.07,0-1.94,0.87-1.94,1.94v4.59
					C985.1,473.3,985.97,474.18,987.04,474.18z"/>
				<path class="st21" d="M987.04,455.01h6.26v-8.48h-6.26c-1.07,0-1.94,0.87-1.94,1.94v4.59
					C985.1,454.13,985.97,455.01,987.04,455.01z"/>
				<path class="st21" d="M987.04,435.65h6.26v-8.48h-6.26c-1.07,0-1.94,0.87-1.94,1.94v4.59
					C985.1,434.78,985.97,435.65,987.04,435.65z"/>
				<path class="st21" d="M987.04,416.48h6.26V408h-6.26c-1.07,0-1.94,0.87-1.94,1.94v4.59
					C985.1,415.61,985.97,416.48,987.04,416.48z"/>
			</g>
			<g>
				<path class="st21" d="M976.92,522.35h14.31c1.07,0,1.94-0.87,1.94-1.94v-4.59c0-1.07-0.88-1.94-1.94-1.94h-14.31
					c-1.07,0-1.94,0.87-1.94,1.94v4.59C974.97,521.47,975.85,522.35,976.92,522.35z"/>
				<path class="st21" d="M976.92,503.43h14.31c1.07,0,1.94-0.87,1.94-1.94v-4.59c0-1.07-0.88-1.94-1.94-1.94h-14.31
					c-1.07,0-1.94,0.87-1.94,1.94v4.59C974.97,502.55,975.85,503.43,976.92,503.43z"/>
				<path class="st21" d="M977.04,483.64h14.31c1.07,0,1.94-0.87,1.94-1.94v-4.59c0-1.07-0.88-1.94-1.94-1.94h-14.31
					c-1.07,0-1.94,0.87-1.94,1.94v4.59C975.1,482.77,975.98,483.64,977.04,483.64z"/>
				<path class="st21" d="M977.04,464.72h14.31c1.07,0,1.94-0.87,1.94-1.94v-4.59c0-1.07-0.88-1.94-1.94-1.94h-14.31
					c-1.07,0-1.94,0.87-1.94,1.94v4.59C975.1,463.84,975.98,464.72,977.04,464.72z"/>
				<path class="st21" d="M977.04,445.11h14.31c1.07,0,1.94-0.87,1.94-1.94v-4.59c0-1.07-0.88-1.94-1.94-1.94h-14.31
					c-1.07,0-1.94,0.87-1.94,1.94v4.59C975.1,444.24,975.98,445.11,977.04,445.11z"/>
				<path class="st21" d="M977.04,426.19h14.31c1.07,0,1.94-0.87,1.94-1.94v-4.59c0-1.07-0.88-1.94-1.94-1.94h-14.31
					c-1.07,0-1.94,0.87-1.94,1.94v4.59C975.1,425.32,975.98,426.19,977.04,426.19z"/>
			</g>
		</g>
	</g>
	<g>
		<g>
			<rect x="946.97" y="311.66" class="st3" width="27.27" height="57.28"/>
			<path class="st4" d="M945.95,310.3h29.32v60.01h-29.32V310.3L945.95,310.3z M948.17,312.51v55.57h24.89v-55.57H948.17z"/>
			<rect x="959.67" y="311.4" class="st4" width="1.88" height="57.79"/>
			<rect x="947.14" y="339.36" class="st4" width="26.94" height="1.88"/>
			<rect x="947.23" y="325.38" class="st4" width="26.94" height="1.02"/>
			<rect x="947.31" y="353.85" class="st4" width="26.94" height="1.02"/>
		</g>
		<rect x="942.54" y="369.28" class="st4" width="36.14" height="4.26"/>
		<rect x="942.54" y="373.54" class="st5" width="36.14" height="5.37"/>
	</g>
	<g>
		<g>
			<rect x="946.97" y="397.76" class="st3" width="27.27" height="57.28"/>
			<path class="st4" d="M945.95,396.4h29.32v60.01h-29.32V396.4L945.95,396.4z M948.17,398.62v55.58h24.89v-55.58H948.17z"/>
			<rect x="959.67" y="397.51" class="st4" width="1.88" height="57.79"/>
			<rect x="947.14" y="425.47" class="st4" width="26.94" height="1.88"/>
			<rect x="947.23" y="411.49" class="st4" width="26.94" height="1.02"/>
			<rect x="947.31" y="439.96" class="st4" width="26.94" height="1.02"/>
		</g>
		<rect x="942.54" y="455.39" class="st4" width="36.14" height="4.26"/>
		<rect x="942.54" y="459.65" class="st5" width="36.14" height="5.37"/>
	</g>
	<rect x="926.12" y="296.19" class="st7" width="68.97" height="9.89"/>
	<rect x="925.48" y="278.95" class="st9" width="70.26" height="20.46"/>
	<rect x="924.53" y="263.26" class="st4" width="72.16" height="15.68"/>
	<rect x="925.48" y="278.95" class="st11" width="70.26" height="4.6"/>
	<rect x="926.12" y="246.59" class="st7" width="68.97" height="6.82"/>
	<polygon class="st4" points="995.74,248.26 925.48,248.26 925.48,227.18 945.69,227.18 945.69,235.65 975.53,235.65 975.53,227.18 
		995.74,227.18 	"/>
	<rect x="926.12" y="484.7" class="st4" width="68.97" height="40.42"/>
	<g>
		<path class="st16" d="M934.35,512.89h-6.26v-8.48h6.26c1.07,0,1.94,0.87,1.94,1.94v4.59C936.3,512.01,935.42,512.89,934.35,512.89
			z"/>
		<path class="st16" d="M934.35,493.72h-6.26v-8.48h6.26c1.07,0,1.94,0.87,1.94,1.94v4.59C936.3,492.84,935.42,493.72,934.35,493.72
			z"/>
		<path class="st16" d="M944.47,522.35h-14.31c-1.07,0-1.94-0.87-1.94-1.94v-4.59c0-1.07,0.88-1.94,1.94-1.94h14.31
			c1.07,0,1.94,0.87,1.94,1.94v4.59C946.42,521.47,945.54,522.35,944.47,522.35z"/>
		<path class="st16" d="M944.47,503.43h-14.31c-1.07,0-1.94-0.87-1.94-1.94v-4.59c0-1.07,0.88-1.94,1.94-1.94h14.31
			c1.07,0,1.94,0.87,1.94,1.94v4.59C946.42,502.55,945.54,503.43,944.47,503.43z"/>
		<path class="st16" d="M987.04,512.89h6.26v-8.48h-6.26c-1.07,0-1.94,0.87-1.94,1.94v4.59
			C985.1,512.01,985.97,512.89,987.04,512.89z"/>
		<path class="st16" d="M987.04,493.72h6.26v-8.48h-6.26c-1.07,0-1.94,0.87-1.94,1.94v4.59
			C985.1,492.84,985.97,493.72,987.04,493.72z"/>
		<path class="st16" d="M976.92,522.35h14.31c1.07,0,1.94-0.87,1.94-1.94v-4.59c0-1.07-0.88-1.94-1.94-1.94h-14.31
			c-1.07,0-1.94,0.87-1.94,1.94v4.59C974.97,521.47,975.85,522.35,976.92,522.35z"/>
		<path class="st16" d="M976.92,503.43h14.31c1.07,0,1.94-0.87,1.94-1.94v-4.59c0-1.07-0.88-1.94-1.94-1.94h-14.31
			c-1.07,0-1.94,0.87-1.94,1.94v4.59C974.97,502.55,975.85,503.43,976.92,503.43z"/>
	</g>
	<rect x="925.06" y="478.39" class="st4" width="71.11" height="6.31"/>
	<rect x="926.12" y="484.7" class="st11" width="68.97" height="3.07"/>
	<polygon class="st4" points="466.21,248.26 395.95,248.26 395.95,227.18 416.16,227.18 416.16,235.65 446,235.65 446,227.18 
		466.21,227.18 	"/>
</g>
</svg>
